<?xml version="1.0" encoding="utf-8"?>
<!-- Generator: Adobe Illustrator 18.1.0, SVG Export Plug-In . SVG Version: 6.00 Build 0)  -->
<svg version="1.1" id="Layer_1" xmlns="http://www.w3.org/2000/svg" xmlns:xlink="http://www.w3.org/1999/xlink" x="0px" y="0px"
	 viewBox="-167 142.6 24 24" enable-background="new -167 142.6 24 24" xml:space="preserve">
<g>
	<path fill="#EC5149" d="M-143.1,161.4c0,1-0.8,1.8-1.8,1.8h-20.2c-1,0-1.8-0.8-1.8-1.8v-13.7c0-1,0.8-1.8,1.8-1.8h20.2
		c1,0,1.8,0.8,1.8,1.8V161.4z"/>
	<polygon fill="#F1F2DC" points="-165,145.9 -155.1,152.9 -145.1,145.9 	"/>
	<polygon fill="#F1F2DC" points="-164.2,150.3 -164.3,163.4 -145.8,163.4 -145.8,150.3 -155.1,156.8 	"/>
	<polygon fill="#C9C9B8" points="-155.1,156.8 -164.2,163.3 -155.5,156.5 	"/>
	<polygon fill="#C9C9B8" points="-155.1,156.8 -145.8,163.2 -145.8,150.1 	"/>
</g>
</svg>
