<?xml version="1.0" encoding="utf-8"?>
<!-- Generator: Adobe Illustrator 18.1.0, SVG Export Plug-In . SVG Version: 6.00 Build 0)  -->
<svg version="1.1" id="Layer_1" xmlns="http://www.w3.org/2000/svg" xmlns:xlink="http://www.w3.org/1999/xlink" x="0px" y="0px"
	 viewBox="-167 142.6 24 24" enable-background="new -167 142.6 24 24" xml:space="preserve">
<path fill="#FFFFFF" d="M-164,156.7v0.3c0,0.7,0,1.2,0.1,1.6c0.1,0.3,0.2,0.5,0.5,0.6c0.2,0.1,0.5,0.1,0.7,0.1l4.9-1.5
	c0.3-0.1,0.6-0.3,0.7-0.6c0.1-0.2,0.1-0.3,0.1-0.5s0-0.3-0.1-0.5c-0.1-0.3-0.4-0.5-0.8-0.6l-4.9-2c-0.2,0-0.4,0-0.7,0.2
	c-0.2,0.2-0.3,0.4-0.4,0.7C-163.9,155.2-164,155.9-164,156.7z M-161.9,145.4c-0.1-0.1-0.1-0.3-0.1-0.4c0-0.1,0-0.3,0.1-0.4
	c0.2-0.3,0.5-0.5,0.9-0.6c1.3-0.5,2.6-0.9,4.1-1.1h0.1c0.7,0,1.1,0.3,1.2,0.9c0.4,5,0.6,8.1,0.6,9.4c0,0.5-0.2,0.8-0.6,1
	c-0.1,0-0.2,0-0.3,0c-0.3,0-0.6-0.2-0.9-0.6C-159.2,149.8-160.9,147.1-161.9,145.4z M-160.3,163.6l3.3-4c0.3-0.3,0.6-0.5,0.9-0.5
	c0.1,0,0.3,0,0.4,0.1c0.4,0.2,0.6,0.5,0.6,1.1c0,0.1,0,0.2,0,0.2v5.3c0,0.2-0.2,0.4-0.4,0.5c-0.1,0.1-0.3,0.1-0.4,0.1
	c-0.1,0-0.3,0-0.4-0.1c-0.6-0.1-1.2-0.3-2-0.6s-1.4-0.6-1.7-0.9c-0.3-0.2-0.4-0.5-0.4-0.7C-160.5,163.9-160.4,163.8-160.3,163.6z
	 M-153.3,155.5c-0.1-0.2-0.1-0.4-0.1-0.5c0-0.3,0.1-0.5,0.4-0.8l3.1-4.3c0.1-0.1,0.3-0.2,0.5-0.2c0,0,0.1,0,0.2,0
	c0.3,0,0.5,0.2,0.7,0.4c0.4,0.4,0.8,1,1.3,1.7s0.7,1.3,0.9,1.7c0,0.1,0.1,0.2,0.1,0.4c0,0.1,0,0.3-0.1,0.4c-0.1,0.2-0.3,0.3-0.5,0.4
	l-5,1.3c-0.1,0-0.3,0-0.4,0C-152.8,156.1-153.1,155.9-153.3,155.5z M-153,158.5c-0.1,0.2-0.2,0.4-0.2,0.6c0,0.3,0.1,0.5,0.3,0.8
	l2.7,4.5c0.1,0.1,0.3,0.2,0.6,0.2h0.1c0.3,0,0.6-0.1,0.8-0.4c0.4-0.4,0.9-0.9,1.3-1.5s0.8-1.2,1-1.7c0.1-0.2,0.1-0.3,0.1-0.5
	c0-0.1,0-0.2-0.1-0.3c-0.1-0.2-0.2-0.4-0.5-0.5l-4.9-1.7c-0.2-0.1-0.3-0.1-0.5-0.1C-152.6,158.1-152.8,158.2-153,158.5z"/>
</svg>
