<?xml version="1.0" encoding="utf-8"?>
<!-- Generator: Adobe Illustrator 18.1.0, SVG Export Plug-In . SVG Version: 6.00 Build 0)  -->
<svg version="1.1" id="Layer_1" xmlns="http://www.w3.org/2000/svg" xmlns:xlink="http://www.w3.org/1999/xlink" x="0px" y="0px"
	 viewBox="-167 142.6 24 24" enable-background="new -167 142.6 24 24" xml:space="preserve">
<path id="Triangle" fill="#FFFFFF" d="M-157.6,158.1l6.4-3.3l-6.4-3.4V158.1z"/>
<path id="The_Sharpness" opacity="0.12" fill-rule="evenodd" clip-rule="evenodd" fill="#420000" d="M-157.6,151.4l5.6,3.8l0.8-0.4
	L-157.6,151.4z"/>
<g id="Lozenge">
	<g>
		<linearGradient id="SVGID_1_" gradientUnits="userSpaceOnUse" x1="-155.0954" y1="146.6075" x2="-155.0954" y2="163.3534">
			<stop  offset="0" style="stop-color:#E52D27"/>
			<stop  offset="1" style="stop-color:#BF171D"/>
		</linearGradient>
		<path fill="url(#SVGID_1_)" d="M-143.4,150.2c0,0-0.2-1.6-0.9-2.4c-0.9-0.9-1.9-1-2.4-1c-3.3-0.2-8.3-0.2-8.3-0.2h0
			c0,0-5,0-8.3,0.2c-0.5,0.1-1.5,0.1-2.4,1c-0.7,0.7-0.9,2.4-0.9,2.4s-0.2,1.9-0.2,3.9v1.8c0,1.9,0.2,3.9,0.2,3.9s0.2,1.6,0.9,2.4
			c0.9,0.9,2.1,0.9,2.6,1c1.9,0.2,8.1,0.2,8.1,0.2s5,0,8.3-0.2c0.5-0.1,1.5-0.1,2.4-1c0.7-0.7,0.9-2.4,0.9-2.4s0.2-1.9,0.2-3.9v-1.8
			C-143.2,152.1-143.4,150.2-143.4,150.2z M-157.6,158.1l0-6.7l6.4,3.4L-157.6,158.1z"/>
	</g>
</g>
</svg>
