<?xml version="1.0" encoding="utf-8"?>
<!-- Generator: Adobe Illustrator 18.1.0, SVG Export Plug-In . SVG Version: 6.00 Build 0)  -->
<svg version="1.1" id="Layer_1" xmlns="http://www.w3.org/2000/svg" xmlns:xlink="http://www.w3.org/1999/xlink" x="0px" y="0px"
	 viewBox="-167 142.6 24 24" enable-background="new -167 142.6 24 24" xml:space="preserve">
<path fill="#FFFFFF" d="M-143.4,149c-0.9,0.3-1.8,0.5-2.7,0.6c1-0.5,1.7-1.3,2.1-2.2c-0.9,0.5-1.9,0.8-3,1c-0.9-0.8-2.1-1.3-3.5-1.3
	c-2.6,0-4.8,1.8-4.8,4c0,0.3,0,0.6,0.1,0.9c-4-0.2-7.5-1.8-9.8-4.2c-0.4,0.6-0.6,1.3-0.6,2c0,1.4,0.8,2.6,2.1,3.4
	c-0.8,0-1.5-0.2-2.2-0.5c0,0,0,0,0,0.1c0,2,1.6,3.6,3.8,3.9c-0.4,0.1-0.8,0.1-1.3,0.1c-0.3,0-0.6,0-0.9-0.1c0.6,1.6,2.4,2.8,4.4,2.8
	c-1.6,1.1-3.7,1.7-5.9,1.7c-0.4,0-0.8,0-1.1-0.1c2.1,1.1,4.6,1.8,7.3,1.8c8.8,0,13.5-6.1,13.5-11.5c0-0.2,0-0.3,0-0.5
	C-144.8,150.5-144,149.8-143.4,149z"/>
</svg>
