<?xml version="1.0" encoding="utf-8"?>
<!-- Generator: Adobe Illustrator 18.1.0, SVG Export Plug-In . SVG Version: 6.00 Build 0)  -->
<svg version="1.1" id="linekedin" xmlns="http://www.w3.org/2000/svg" xmlns:xlink="http://www.w3.org/1999/xlink" x="0px" y="0px"
	 viewBox="-167 142.6 24 24" enable-background="new -167 142.6 24 24" xml:space="preserve">
<path fill="#FFFFFF" d="M-161.5,166v-15.4h-5.1V166H-161.5z M-164.1,148.5c1.8,0,2.9-1.2,2.9-2.7c0-1.5-1.1-2.7-2.9-2.7
	c-1.8,0-2.9,1.2-2.9,2.7C-166.9,147.3-165.8,148.5-164.1,148.5L-164.1,148.5L-164.1,148.5z M-158.7,166h5.1v-8.6
	c0-0.5,0-0.9,0.2-1.2c0.4-0.9,1.2-1.9,2.6-1.9c1.9,0,2.6,1.4,2.6,3.5v8.2h5.1v-8.8c0-4.7-2.5-6.9-5.9-6.9c-2.8,0-4,1.5-4.7,2.6h0
	v-2.2h-5.1C-158.6,152.1-158.7,166-158.7,166L-158.7,166z"/>
</svg>
