<?xml version="1.0" encoding="utf-8"?>
<!-- Generator: Adobe Illustrator 18.1.0, SVG Export Plug-In . SVG Version: 6.00 Build 0)  -->
<svg version="1.1" xmlns="http://www.w3.org/2000/svg" xmlns:xlink="http://www.w3.org/1999/xlink" x="0px" y="0px"
	 viewBox="0 0 600 492" enable-background="new 0 0 600 492" xml:space="preserve">
<g id="ram_x5F_bkg" display="none">
	<g display="inline">
		
			<rect x="67" y="258.5" transform="matrix(0.7071 -0.7071 0.7071 0.7071 -105.3077 290.4942)" fill="#4A6C74" width="462" height="27.7"/>
		<g>
			
				<rect x="142.9" y="408.9" transform="matrix(-0.7071 0.7071 -0.7071 -0.7071 550.8992 617.371)" fill="#F8F78A" width="9.4" height="27.7"/>
			
				<rect x="157.9" y="393.9" transform="matrix(-0.7071 0.7071 -0.7071 -0.7071 565.9408 581.0574)" fill="#F8F78A" width="9.4" height="27.7"/>
			
				<rect x="173" y="378.9" transform="matrix(-0.7071 0.7071 -0.7071 -0.7071 580.9824 544.7439)" fill="#F8F78A" width="9.4" height="27.7"/>
			
				<rect x="188" y="363.8" transform="matrix(-0.7071 0.7071 -0.7071 -0.7071 596.0258 508.425)" fill="#F8F78A" width="9.4" height="27.7"/>
			
				<rect x="203.1" y="348.8" transform="matrix(-0.7071 0.7071 -0.7071 -0.7071 611.064 472.1221)" fill="#F8F78A" width="9.4" height="27.7"/>
			
				<rect x="218.1" y="333.7" transform="matrix(-0.7071 0.7071 -0.7071 -0.7071 626.1072 435.803)" fill="#F8F78A" width="9.4" height="27.7"/>
			
				<rect x="233.2" y="318.7" transform="matrix(-0.7071 0.7071 -0.7071 -0.7071 641.1486 399.4895)" fill="#F8F78A" width="9.4" height="27.7"/>
			
				<rect x="248.2" y="303.7" transform="matrix(-0.7071 0.7071 -0.7071 -0.7071 656.1902 363.176)" fill="#F8F78A" width="9.4" height="27.7"/>
			
				<rect x="263.2" y="288.6" transform="matrix(-0.7071 0.7071 -0.7071 -0.7071 671.2318 326.8619)" fill="#F8F78A" width="9.4" height="27.7"/>
			
				<rect x="278.3" y="273.6" transform="matrix(-0.7071 0.7071 -0.7071 -0.7071 686.2734 290.5489)" fill="#F8F78A" width="9.4" height="27.7"/>
			
				<rect x="293.3" y="258.5" transform="matrix(-0.7071 0.7071 -0.7071 -0.7071 701.3149 254.23)" fill="#F8F78A" width="9.4" height="27.7"/>
			
				<rect x="308.4" y="243.5" transform="matrix(-0.7071 0.7071 -0.7071 -0.7071 716.3565 217.9218)" fill="#F8F78A" width="9.4" height="27.7"/>
			
				<rect x="323.4" y="228.4" transform="matrix(-0.7071 0.7071 -0.7071 -0.7071 731.3982 181.6079)" fill="#F8F78A" width="9.4" height="27.7"/>
			
				<rect x="338.4" y="213.4" transform="matrix(-0.7071 0.7071 -0.7071 -0.7071 746.4408 145.2997)" fill="#F8F78A" width="9.4" height="27.7"/>
			
				<rect x="353.5" y="198.4" transform="matrix(-0.7071 0.7071 -0.7071 -0.7071 761.4813 108.9808)" fill="#F8F78A" width="9.4" height="27.7"/>
			
				<rect x="368.5" y="183.3" transform="matrix(-0.7071 0.7071 -0.7071 -0.7071 776.5229 72.6673)" fill="#F8F78A" width="9.4" height="27.7"/>
			
				<rect x="383.6" y="168.3" transform="matrix(-0.7071 0.7071 -0.7071 -0.7071 791.5645 36.3537)" fill="#F8F78A" width="9.4" height="27.7"/>
			
				<rect x="398.6" y="153.2" transform="matrix(-0.7071 0.7071 -0.7071 -0.7071 806.6055 3.904113e-02)" fill="#F8F78A" width="9.4" height="27.7"/>
			
				<rect x="413.7" y="138.2" transform="matrix(-0.7071 0.7071 -0.7071 -0.7071 821.6476 -36.2734)" fill="#F8F78A" width="9.4" height="27.7"/>
			
				<rect x="428.7" y="123.2" transform="matrix(-0.7071 0.7071 -0.7071 -0.7071 836.6865 -72.5922)" fill="#F8F78A" width="9.4" height="27.7"/>
			
				<rect x="443.7" y="108.1" transform="matrix(-0.7071 0.7071 -0.7071 -0.7071 851.7337 -108.8952)" fill="#F8F78A" width="9.4" height="27.7"/>
		</g>
		<path fill="#029A80" d="M375.9,33.1L58.8,350.2c-2.7,2.7-2.7,7,0,9.6l66.1,66.1L451.6,99.2l-66.1-66.1
			C382.8,30.5,378.5,30.5,375.9,33.1z"/>
		<g>
			<path fill="#595762" d="M162,363.7l-27.6,27.6c-2.6,2.6-6.7,2.6-9.3,0L86.8,353c-2.6-2.6-2.6-6.7,0-9.3l27.6-27.6
				c2.6-2.6,6.7-2.6,9.3,0l38.3,38.3C164.5,357,164.5,361.2,162,363.7z"/>
			<path fill="#595762" d="M225.7,300l-27.6,27.6c-2.6,2.6-6.7,2.6-9.3,0l-38.3-38.3c-2.6-2.6-2.6-6.7,0-9.3l27.6-27.6
				c2.6-2.6,6.7-2.6,9.3,0l38.3,38.3C228.3,293.2,228.3,297.4,225.7,300z"/>
			<path fill="#595762" d="M289.5,236.2l-27.6,27.6c-2.6,2.6-6.7,2.6-9.3,0l-38.3-38.3c-2.6-2.6-2.6-6.7,0-9.3l27.6-27.6
				c2.6-2.6,6.7-2.6,9.3,0l38.3,38.3C292,229.5,292,233.7,289.5,236.2z"/>
			<path fill="#595762" d="M353.2,172.5l-27.6,27.6c-2.6,2.6-6.7,2.6-9.3,0L278,161.7c-2.6-2.6-2.6-6.7,0-9.3l27.6-27.6
				c2.6-2.6,6.7-2.6,9.3,0l38.3,38.3C355.8,165.8,355.8,169.9,353.2,172.5z"/>
			<path fill="#595762" d="M416.9,108.7l-27.6,27.6c-2.6,2.6-6.7,2.6-9.3,0L341.7,98c-2.6-2.6-2.6-6.7,0-9.3l27.6-27.6
				c2.6-2.6,6.7-2.6,9.3,0l38.3,38.3C419.5,102,419.5,106.2,416.9,108.7z"/>
		</g>
	</g>
</g>
<g id="ram_1_">
	<g>
		
			<rect x="121.2" y="272.5" transform="matrix(0.7071 -0.7071 0.7071 0.7071 -99.3193 332.9445)" fill="#4A6C74" width="462" height="27.7"/>
		<g>
			
				<rect x="197.1" y="422.9" transform="matrix(-0.7071 0.7071 -0.7071 -0.7071 653.3834 602.9136)" fill="#F2C063" width="9.4" height="27.7"/>
			
				<rect x="212.2" y="407.9" transform="matrix(-0.7071 0.7071 -0.7071 -0.7071 668.425 566.6)" fill="#F2C063" width="9.4" height="27.7"/>
			
				<rect x="227.2" y="392.9" transform="matrix(-0.7071 0.7071 -0.7071 -0.7071 683.4666 530.2864)" fill="#F2C063" width="9.4" height="27.7"/>
			
				<rect x="242.3" y="377.8" transform="matrix(-0.7071 0.7071 -0.7071 -0.7071 698.5096 493.9669)" fill="#F2C063" width="9.4" height="27.7"/>
			
				<rect x="257.3" y="362.8" transform="matrix(-0.7071 0.7071 -0.7071 -0.7071 713.5485 457.6653)" fill="#F2C063" width="9.4" height="27.7"/>
			
				<rect x="272.3" y="347.7" transform="matrix(-0.7071 0.7071 -0.7071 -0.7071 728.5913 421.3457)" fill="#F2C063" width="9.4" height="27.7"/>
			
				<rect x="287.4" y="332.7" transform="matrix(-0.7071 0.7071 -0.7071 -0.7071 743.6329 385.0321)" fill="#F2C063" width="9.4" height="27.7"/>
			
				<rect x="302.4" y="317.7" transform="matrix(-0.7071 0.7071 -0.7071 -0.7071 758.6744 348.7186)" fill="#F2C063" width="9.4" height="27.7"/>
			
				<rect x="317.5" y="302.6" transform="matrix(-0.7071 0.7071 -0.7071 -0.7071 773.716 312.4044)" fill="#F2C063" width="9.4" height="27.7"/>
			
				<rect x="332.5" y="287.6" transform="matrix(-0.7071 0.7071 -0.7071 -0.7071 788.7576 276.0915)" fill="#F2C063" width="9.4" height="27.7"/>
			
				<rect x="347.6" y="272.5" transform="matrix(-0.7071 0.7071 -0.7071 -0.7071 803.7986 239.772)" fill="#F2C063" width="9.4" height="27.7"/>
			
				<rect x="362.6" y="257.5" transform="matrix(-0.7071 0.7071 -0.7071 -0.7071 818.8407 203.4644)" fill="#F2C063" width="9.4" height="27.7"/>
			
				<rect x="377.6" y="242.4" transform="matrix(-0.7071 0.7071 -0.7071 -0.7071 833.8823 167.1506)" fill="#F2C063" width="9.4" height="27.7"/>
			
				<rect x="392.7" y="227.4" transform="matrix(-0.7071 0.7071 -0.7071 -0.7071 848.9253 130.8429)" fill="#F2C063" width="9.4" height="27.7"/>
			
				<rect x="407.7" y="212.4" transform="matrix(-0.7071 0.7071 -0.7071 -0.7071 863.9655 94.5234)" fill="#F2C063" width="9.4" height="27.7"/>
			
				<rect x="422.8" y="197.3" transform="matrix(-0.7071 0.7071 -0.7071 -0.7071 879.007 58.2099)" fill="#F2C063" width="9.4" height="27.7"/>
			
				<rect x="437.8" y="182.3" transform="matrix(-0.7071 0.7071 -0.7071 -0.7071 894.0485 21.8964)" fill="#F2C063" width="9.4" height="27.7"/>
			
				<rect x="452.8" y="167.2" transform="matrix(-0.7071 0.7071 -0.7071 -0.7071 909.0897 -14.4185)" fill="#F2C063" width="9.4" height="27.7"/>
			
				<rect x="467.9" y="152.2" transform="matrix(-0.7071 0.7071 -0.7071 -0.7071 924.1317 -50.7307)" fill="#F2C063" width="9.4" height="27.7"/>
			
				<rect x="482.9" y="137.2" transform="matrix(-0.7071 0.7071 -0.7071 -0.7071 939.1702 -87.0501)" fill="#F2C063" width="9.4" height="27.7"/>
			
				<rect x="498" y="122.1" transform="matrix(-0.7071 0.7071 -0.7071 -0.7071 954.2182 -123.3519)" fill="#F2C063" width="9.4" height="27.7"/>
		</g>
		<path fill="#65A874" d="M430.1,47.1L113,364.2c-2.7,2.7-2.7,7,0,9.6l66.1,66.1l326.7-326.7l-66.1-66.1
			C437.1,44.5,432.8,44.5,430.1,47.1z"/>
		<g>
			<path fill="#616E57" d="M216.2,377.7l-27.6,27.6c-2.6,2.6-6.7,2.6-9.3,0L141,367c-2.6-2.6-2.6-6.7,0-9.3l27.6-27.6
				c2.6-2.6,6.7-2.6,9.3,0l38.3,38.3C218.8,371,218.8,375.2,216.2,377.7z"/>
			<path fill="#616E57" d="M279.9,314l-27.6,27.6c-2.6,2.6-6.7,2.6-9.3,0l-38.3-38.3c-2.6-2.6-2.6-6.7,0-9.3l27.6-27.6
				c2.6-2.6,6.7-2.6,9.3,0l38.3,38.3C282.5,307.2,282.5,311.4,279.9,314z"/>
			<path fill="#616E57" d="M343.7,250.2l-27.6,27.6c-2.6,2.6-6.7,2.6-9.3,0l-38.3-38.3c-2.6-2.6-2.6-6.7,0-9.3l27.6-27.6
				c2.6-2.6,6.7-2.6,9.3,0l38.3,38.3C346.3,243.5,346.3,247.7,343.7,250.2z"/>
			<path fill="#616E57" d="M407.4,186.5l-27.6,27.6c-2.6,2.6-6.7,2.6-9.3,0l-38.3-38.3c-2.6-2.6-2.6-6.7,0-9.3l27.6-27.6
				c2.6-2.6,6.7-2.6,9.3,0l38.3,38.3C410,179.7,410,183.9,407.4,186.5z"/>
			<path fill="#616E57" d="M471.2,122.7l-27.6,27.6c-2.6,2.6-6.7,2.6-9.3,0L396,112c-2.6-2.6-2.6-6.7,0-9.3l27.6-27.6
				c2.6-2.6,6.7-2.6,9.3,0l38.3,38.3C473.8,116,473.8,120.2,471.2,122.7z"/>
		</g>
	</g>
</g>
</svg>
