<?xml version="1.0" encoding="utf-8"?>
<!-- Generator: Adobe Illustrator 18.1.0, SVG Export Plug-In . SVG Version: 6.00 Build 0)  -->
<svg version="1.1" xmlns="http://www.w3.org/2000/svg" xmlns:xlink="http://www.w3.org/1999/xlink" x="0px" y="0px"
	 viewBox="0 0 283.5 234" enable-background="new 0 0 283.5 234" xml:space="preserve">
<g id="shadow" display="none">
	
		<radialGradient id="SVGID_1_" cx="365.008" cy="1589.3405" r="157.1165" gradientTransform="matrix(0.827 0 0 0.1039 -160.1345 37.5662)" gradientUnits="userSpaceOnUse">
		<stop  offset="0.7256" style="stop-color:#D4D4D4"/>
		<stop  offset="0.7543" style="stop-color:#DDDDDD"/>
		<stop  offset="0.8331" style="stop-color:#F0F0F0"/>
		<stop  offset="0.9141" style="stop-color:#FBFBFB"/>
		<stop  offset="1" style="stop-color:#FFFFFF"/>
	</radialGradient>
	<ellipse display="inline" fill="url(#SVGID_1_)" cx="141.7" cy="202.7" rx="129.9" ry="16.3"/>
</g>
<g id="Layer_6">
	<path fill="#C98518" d="M140.4,198.9H38.3c0,0,1.5,3.3,1.9,3.8c6,6.7,48.5,12,100.2,12c51.6,0,94.2-5.2,100.2-12
		c0.5-0.5,1.9-3.8,1.9-3.8H140.4z"/>
	<path fill="#F9A510" d="M140.4,168.2c-56.5,0-102.3-6.2-102.3-13.8v43.6c0,7.6,45.8,13.8,102.3,13.8c56.5,0,102.3-6.2,102.3-13.8
		v-43.6C242.7,162,196.9,168.2,140.4,168.2z"/>
	<linearGradient id="SVGID_2_" gradientUnits="userSpaceOnUse" x1="38.126" y1="183.1279" x2="242.7236" y2="183.1279">
		<stop  offset="1.636660e-03" style="stop-color:#B0B0B0"/>
		<stop  offset="4.207997e-02" style="stop-color:#C5C5C5"/>
		<stop  offset="0.1191" style="stop-color:#E8E8E8"/>
		<stop  offset="0.1606" style="stop-color:#F5F5F5"/>
		<stop  offset="0.2229" style="stop-color:#F3F3F3"/>
		<stop  offset="0.2593" style="stop-color:#EAEAEA"/>
		<stop  offset="0.289" style="stop-color:#DCDCDC"/>
		<stop  offset="0.3149" style="stop-color:#C8C8C8"/>
		<stop  offset="0.329" style="stop-color:#BABABA"/>
		<stop  offset="0.3947" style="stop-color:#BDBDBD"/>
		<stop  offset="0.4475" style="stop-color:#C7C7C7"/>
		<stop  offset="0.4861" style="stop-color:#D4D4D4"/>
		<stop  offset="0.6168" style="stop-color:#D0D0D0"/>
		<stop  offset="0.6383" style="stop-color:#CFCFCF"/>
		<stop  offset="0.66" style="stop-color:#C2C2C2"/>
		<stop  offset="0.7003" style="stop-color:#9F9F9F"/>
		<stop  offset="0.7543" style="stop-color:#686868"/>
		<stop  offset="0.7739" style="stop-color:#525252"/>
		<stop  offset="0.804" style="stop-color:#5C5C5C"/>
		<stop  offset="0.8543" style="stop-color:#757575"/>
		<stop  offset="0.9185" style="stop-color:#9F9F9F"/>
		<stop  offset="0.9936" style="stop-color:#D9D9D9"/>
		<stop  offset="1" style="stop-color:#DEDEDE"/>
	</linearGradient>
	<path display="none" fill="url(#SVGID_2_)" d="M140.4,168.2c-56.5,0-102.3-6.2-102.3-13.8v43.6c0,7.6,45.8,13.8,102.3,13.8
		c56.5,0,102.3-6.2,102.3-13.8v-43.6C242.7,162,196.9,168.2,140.4,168.2z"/>
	<path display="none" fill="#DD9624" d="M241.1,151.9c0,0.1,0.1,0.3,0.1,0.4c0,7.3-45.1,13.2-100.7,13.2
		c-55.6,0-100.7-5.9-100.7-13.2c0-0.1,0-0.3,0.1-0.4l-1.7,2.5c0,7.6,45.8,14.3,102.3,14.3c56.5,0,102.3-6.7,102.3-14.3v0.6
		L241.1,151.9z"/>
	<path fill="#C98518" d="M241.1,151.3c0,0.1,0.1,0.3,0.1,0.4c0,7.3-45.1,13.2-100.7,13.2c-55.6,0-100.7-5.9-100.7-13.2
		c0-0.1,0-0.3,0.1-0.4l-1.7,3.1c0,7.6,45.8,13.8,102.3,13.8c56.5,0,102.3-6.2,102.3-13.8v0L241.1,151.3z"/>
	<ellipse fill="#F9A510" cx="140.4" cy="151.7" rx="100.7" ry="13.2"/>
</g>
<g id="server_x5F_02">
	<path fill="#C98518" d="M140.4,134.9H38.3c0,0,1.5,3.3,1.9,3.8c6,6.7,48.5,12,100.2,12c51.6,0,94.2-5.2,100.2-12
		c0.5-0.5,1.9-3.8,1.9-3.8H140.4z"/>
	<path fill="#F9A510" d="M140.4,104.2c-56.5,0-102.3-6.2-102.3-13.8v43.6c0,7.6,45.8,13.8,102.3,13.8c56.5,0,102.3-6.2,102.3-13.8
		V90.4C242.7,98,196.9,104.2,140.4,104.2z"/>
	<linearGradient id="SVGID_3_" gradientUnits="userSpaceOnUse" x1="38.126" y1="119.128" x2="242.7236" y2="119.128">
		<stop  offset="1.636660e-03" style="stop-color:#B0B0B0"/>
		<stop  offset="4.207997e-02" style="stop-color:#C5C5C5"/>
		<stop  offset="0.1191" style="stop-color:#E8E8E8"/>
		<stop  offset="0.1606" style="stop-color:#F5F5F5"/>
		<stop  offset="0.2229" style="stop-color:#F3F3F3"/>
		<stop  offset="0.2593" style="stop-color:#EAEAEA"/>
		<stop  offset="0.289" style="stop-color:#DCDCDC"/>
		<stop  offset="0.3149" style="stop-color:#C8C8C8"/>
		<stop  offset="0.329" style="stop-color:#BABABA"/>
		<stop  offset="0.3947" style="stop-color:#BDBDBD"/>
		<stop  offset="0.4475" style="stop-color:#C7C7C7"/>
		<stop  offset="0.4861" style="stop-color:#D4D4D4"/>
		<stop  offset="0.6168" style="stop-color:#D0D0D0"/>
		<stop  offset="0.6383" style="stop-color:#CFCFCF"/>
		<stop  offset="0.66" style="stop-color:#C2C2C2"/>
		<stop  offset="0.7003" style="stop-color:#9F9F9F"/>
		<stop  offset="0.7543" style="stop-color:#686868"/>
		<stop  offset="0.7739" style="stop-color:#525252"/>
		<stop  offset="0.804" style="stop-color:#5C5C5C"/>
		<stop  offset="0.8543" style="stop-color:#757575"/>
		<stop  offset="0.9185" style="stop-color:#9F9F9F"/>
		<stop  offset="0.9936" style="stop-color:#D9D9D9"/>
		<stop  offset="1" style="stop-color:#DEDEDE"/>
	</linearGradient>
	<path display="none" fill="url(#SVGID_3_)" d="M140.4,104.2c-56.5,0-102.3-6.2-102.3-13.8v43.6c0,7.6,45.8,13.8,102.3,13.8
		c56.5,0,102.3-6.2,102.3-13.8V90.4C242.7,98,196.9,104.2,140.4,104.2z"/>
	<path display="none" fill="#DD9624" d="M241.1,87.9c0,0.1,0.1,0.3,0.1,0.4c0,7.3-45.1,13.2-100.7,13.2
		c-55.6,0-100.7-5.9-100.7-13.2c0-0.1,0-0.3,0.1-0.4l-1.7,2.5c0,7.6,45.8,14.3,102.3,14.3c56.5,0,102.3-6.7,102.3-14.3V91
		L241.1,87.9z"/>
	<path fill="#C98518" d="M241.1,87.3c0,0.1,0.1,0.3,0.1,0.4c0,7.3-45.1,13.2-100.7,13.2C84.8,101,39.7,95,39.7,87.7
		c0-0.1,0-0.3,0.1-0.4l-1.7,3.1c0,7.6,45.8,13.8,102.3,13.8c56.5,0,102.3-6.2,102.3-13.8v0L241.1,87.3z"/>
	<ellipse fill="#F9A510" cx="140.4" cy="87.7" rx="100.7" ry="13.2"/>
</g>
<g id="sever_x5F_01">
	<path fill="#C98518" d="M140.4,70.9H38.3c0,0,1.5,3.3,1.9,3.8c6,6.7,48.5,12,100.2,12c51.6,0,94.2-5.2,100.2-12
		c0.5-0.5,1.9-3.8,1.9-3.8H140.4z"/>
	<path fill="#F9A510" d="M140.4,40.2C83.9,40.2,38.1,34,38.1,26.4v43.6c0,7.6,45.8,13.8,102.3,13.8c56.5,0,102.3-6.2,102.3-13.8
		V26.4C242.7,34,196.9,40.2,140.4,40.2z"/>
	<linearGradient id="SVGID_4_" gradientUnits="userSpaceOnUse" x1="38.126" y1="55.1279" x2="242.7236" y2="55.1279">
		<stop  offset="1.636660e-03" style="stop-color:#B0B0B0"/>
		<stop  offset="4.207997e-02" style="stop-color:#C5C5C5"/>
		<stop  offset="0.1191" style="stop-color:#E8E8E8"/>
		<stop  offset="0.1606" style="stop-color:#F5F5F5"/>
		<stop  offset="0.2229" style="stop-color:#F3F3F3"/>
		<stop  offset="0.2593" style="stop-color:#EAEAEA"/>
		<stop  offset="0.289" style="stop-color:#DCDCDC"/>
		<stop  offset="0.3149" style="stop-color:#C8C8C8"/>
		<stop  offset="0.329" style="stop-color:#BABABA"/>
		<stop  offset="0.3947" style="stop-color:#BDBDBD"/>
		<stop  offset="0.4475" style="stop-color:#C7C7C7"/>
		<stop  offset="0.4861" style="stop-color:#D4D4D4"/>
		<stop  offset="0.6168" style="stop-color:#D0D0D0"/>
		<stop  offset="0.6383" style="stop-color:#CFCFCF"/>
		<stop  offset="0.66" style="stop-color:#C2C2C2"/>
		<stop  offset="0.7003" style="stop-color:#9F9F9F"/>
		<stop  offset="0.7543" style="stop-color:#686868"/>
		<stop  offset="0.7739" style="stop-color:#525252"/>
		<stop  offset="0.804" style="stop-color:#5C5C5C"/>
		<stop  offset="0.8543" style="stop-color:#757575"/>
		<stop  offset="0.9185" style="stop-color:#9F9F9F"/>
		<stop  offset="0.9936" style="stop-color:#D9D9D9"/>
		<stop  offset="1" style="stop-color:#DEDEDE"/>
	</linearGradient>
	<path display="none" fill="url(#SVGID_4_)" d="M140.4,40.2C83.9,40.2,38.1,34,38.1,26.4v43.6c0,7.6,45.8,13.8,102.3,13.8
		c56.5,0,102.3-6.2,102.3-13.8V26.4C242.7,34,196.9,40.2,140.4,40.2z"/>
	<path display="none" fill="#DD9624" d="M241.1,23.9c0,0.1,0.1,0.3,0.1,0.4c0,7.3-45.1,13.2-100.7,13.2
		c-55.6,0-100.7-5.9-100.7-13.2c0-0.1,0-0.3,0.1-0.4l-1.7,2.5c0,7.6,45.8,14.3,102.3,14.3c56.5,0,102.3-6.7,102.3-14.3V27
		L241.1,23.9z"/>
	<path fill="#C98518" d="M241.1,23.3c0,0.1,0.1,0.3,0.1,0.4C241.1,31,196,37,140.4,37C84.8,37,39.7,31,39.7,23.7
		c0-0.1,0-0.3,0.1-0.4l-1.7,3.1c0,7.6,45.8,13.8,102.3,13.8c56.5,0,102.3-6.2,102.3-13.8v0L241.1,23.3z"/>
	<ellipse fill="#F9A510" cx="140.4" cy="23.7" rx="100.7" ry="13.2"/>
</g>
</svg>
