<?xml version="1.0" encoding="utf-8"?>
<!-- Generator: Adobe Illustrator 17.0.0, SVG Export Plug-In . SVG Version: 6.00 Build 0)  -->
<!DOCTYPE svg PUBLIC "-//W3C//DTD SVG 1.1//EN" "http://www.w3.org/Graphics/SVG/1.1/DTD/svg11.dtd">
<svg version="1.1" id="Isolation_Mode" xmlns="http://www.w3.org/2000/svg" xmlns:xlink="http://www.w3.org/1999/xlink" x="0px"
	 y="0px" width="241.603px" height="68px" viewBox="57.173 16.091 241.603 68" enable-background="new 57.173 16.091 241.603 68"
	 xml:space="preserve">
<g>
	<g>
		<path fill="#0072BB" d="M105.244,16.091H64.24c-3.899,0-7.067,3.163-7.067,7.067v41.004c0,3.904,3.168,7.067,7.067,7.067h21.046
			l17.14,12.862l0.113-12.862h2.706c3.903,0,7.065-3.163,7.065-7.067V23.159C112.31,19.254,109.147,16.091,105.244,16.091z"/>
		<path fill="#FFFFFF" d="M90.005,62.662l-5.06-5.991l-5.916,4.115l-1.662-6.417l-10.01,0.331l3.775-6.672l-8.153-3.733l7.577-3.439
			l-3.701-7.354l7.766,1.229l0.779-7.024l4.898,3.28l2.311-7.008l4.78,6.404l4.568-3.272l1.793,5.372l7.538-2.378l-2.613,8.279
			l7.742,2.556l-7.259,5.415l4.542,5.452l-7.193,0.602l1.201,6.253l-5.941-2.664L90.005,62.662L90.005,62.662z"/>
	</g>
	<g>
		<path fill="#1A233C" d="M122.648,24.443h8.595v22.039l-0.176,0.933l9.995-11.981h10.935l-11.342,12.683l11.223,17.596h-10.874
			l-9.878-17.245l0.174,0.994v16.251h-8.652V24.443z"/>
		<path fill="#1A233C" d="M172.196,62.381c-1.051,1.405-3.039,3.977-7.948,3.977c-7.194,0-12.572-5.847-12.572-15.316
			c0-11.925,7.484-16.37,13.213-16.37c3.332,0,5.962,1.697,7.482,4.62v-3.918h8.243v30.339h-8.419V62.381z M169.974,43.147
			c-0.876-0.931-2.163-1.516-3.449-1.516c-1.578,0-3.215,0.874-4.266,2.218c-1.461,1.93-1.813,4.326-1.813,6.669
			c0,1.869,0.234,3.68,0.937,5.201c1.169,2.627,3.097,3.566,4.793,3.566c0.526,0,2.221-0.119,3.741-1.697
			c1.813-1.987,2.222-4.617,2.222-7.366C172.138,46.307,171.084,44.259,169.974,43.147z"/>
		<path fill="#1A233C" d="M194.284,35.374V39c2.103-2.982,4.854-4.384,8.591-4.384c7.485,0,12.512,6.196,12.512,15.902
			c0,9.233-5.142,15.956-12.917,15.956c-4.677,0-6.606-1.985-7.952-3.39v12.102h-8.593V35.374H194.284z M197.968,42.273
			c-3.33,1.694-3.566,5.901-3.566,8.537c0,1.985,0.236,3.971,1.113,5.493c1.167,2.28,3.156,2.982,5.025,2.982
			c4.386,0,6.14-4.384,6.14-9.296c0-3.39-1.111-8.298-5.964-8.298C199.722,41.691,198.787,41.861,197.968,42.273z"/>
		<path fill="#1A233C" d="M249.822,50.458c0,10.053-7.192,16.132-16.196,16.132c-9.995,0-15.14-7.424-15.14-15.957
			c0-9.002,5.67-16.077,16.136-16.077C244.793,34.556,249.822,42.33,249.822,50.458z M239.471,44.144
			c-1.574-2.338-3.678-2.688-5.144-2.688c-0.992,0-2.219,0.176-3.329,0.761c-3.393,1.868-3.685,6.194-3.685,8.301
			c0,1.108,0.115,2.277,0.351,3.39c1.053,4.851,4.501,5.666,6.49,5.666c2.163,0,4.035-0.99,5.261-2.801
			c1.461-2.166,1.579-4.911,1.579-6.55C240.995,48.468,240.876,46.188,239.471,44.144z"/>
		<path fill="#1A233C" d="M260.395,55.132c0.35,2.164,0.818,5.029,6.488,5.029c1.171,0,4.267-0.176,4.267-2.806
			c0-1.812-1.518-2.336-3.39-2.805c-0.816-0.236-4.793-1.171-5.672-1.407c-3.449-0.874-8.943-2.22-8.943-8.999
			c0-1.695,0.29-4.797,3.624-7.191c2.163-1.519,5.259-2.397,9.119-2.397c2.982,0,6.2,0.526,8.77,2.277
			c2.864,1.871,4.15,4.502,4.384,8.013l-8.067,0.407c-0.174-0.994-0.292-1.812-0.758-2.513c-0.117-0.176-1.286-1.869-4.62-1.869
			c-2.925,0-4.15,0.876-4.15,2.454c0,1.227,0.819,1.871,3.213,2.454c0.705,0.176,4.151,0.992,4.971,1.171
			c3.916,0.935,10.288,2.455,10.288,9.47c0,7.248-6.2,10.17-13.269,10.17c-2.399,0-4.324-0.292-5.789-0.703
			c-1.987-0.468-5.321-1.693-7.309-5.143c-1.286-2.161-1.342-4.033-1.342-5.379L260.395,55.132z"/>
		<path fill="#1A233C" d="M285.856,26.432h8.595v9.002h4.324v6.546h-4.324v23.733h-8.595V41.98h-4.326v-6.546h4.326V26.432z"/>
	</g>
</g>
</svg>
