<?xml version="1.0" encoding="utf-8"?>
<!-- Generator: Adobe Illustrator 18.1.0, SVG Export Plug-In . SVG Version: 6.00 Build 0)  -->
<svg version="1.1" id="Layer_1" xmlns="http://www.w3.org/2000/svg" xmlns:xlink="http://www.w3.org/1999/xlink" x="0px" y="0px"
	 viewBox="206 539 581 208" enable-background="new 206 539 581 208" xml:space="preserve">
<path fill="#FFFFFF" stroke="#FFFFFF" stroke-miterlimit="10" d="M380,619.1c0.7,0,1.2,0.6,1.2,1.2s-0.6,1.2-1.2,1.2
	c-0.7,0-1.2-0.6-1.2-1.2S379.4,619.1,380,619.1z"/>
<path fill="#FFFFFF" stroke="#FFFFFF" stroke-miterlimit="10" d="M276.6,592.2c0.7,0,1.2,0.6,1.2,1.2c0,0.7-0.6,1.2-1.2,1.2
	c-0.7,0-1.2-0.6-1.2-1.2C275.4,592.8,275.9,592.2,276.6,592.2z"/>
<path fill="#FFFFFF" stroke="#FFFFFF" stroke-miterlimit="10" d="M765.3,566.5c0.9,0,1.5,0.7,1.5,1.5c0,0.9-0.7,1.5-1.5,1.5
	s-1.5-0.7-1.5-1.5C763.8,567.2,764.4,566.5,765.3,566.5z"/>
<path fill="#FFFFFF" stroke="#FFFFFF" stroke-miterlimit="10" d="M305.1,717.1c0.9,0,1.5,0.7,1.5,1.5s-0.7,1.5-1.5,1.5
	c-0.9,0-1.5-0.7-1.5-1.5S304.2,717.1,305.1,717.1z"/>
<path fill="#FFFFFF" stroke="#FFFFFF" stroke-miterlimit="10" d="M646.6,679.7c1.2,0,2.1,1,2.1,2.1s-1,2.1-2.1,2.1
	c-1.2,0-2.1-1-2.1-2.1S645.4,679.7,646.6,679.7z"/>
<path fill="#FFFFFF" stroke="#FFFFFF" stroke-miterlimit="10" d="M462.1,652.8c1,0,1.8,0.8,1.8,1.8s-0.8,1.8-1.8,1.8
	s-1.8-0.8-1.8-1.8S461,652.8,462.1,652.8z"/>
<path fill="#FFFFFF" stroke="#FFFFFF" stroke-miterlimit="10" d="M696.7,588.9c0.9,0,1.5,0.7,1.5,1.5s-0.7,1.5-1.5,1.5
	s-1.5-0.7-1.5-1.5S695.8,588.9,696.7,588.9z"/>
<path fill="#FFFFFF" stroke="#FFFFFF" stroke-miterlimit="10" d="M703.7,686.2l-5.4-2.4l-4-4.3l5.4,2.4L703.7,686.2z"/>
<path fill="#FFFFFF" stroke="#FFFFFF" stroke-miterlimit="10" d="M702.4,678l-2.4,5.4l-4.3,4l2.4-5.4L702.4,678z"/>
<path fill="#FFFFFF" stroke="#FFFFFF" stroke-miterlimit="10" d="M341.4,589.2l-4.8,3.5l-5.8,1.3l4.8-3.5L341.4,589.2z"/>
<path fill="#FFFFFF" stroke="#FFFFFF" stroke-miterlimit="10" d="M333.7,586.3l3.5,4.8l1.3,5.8l-3.5-4.8L333.7,586.3z"/>
<path fill="#FFFFFF" stroke="#FFFFFF" stroke-miterlimit="10" d="M239.8,713l-4.5,0.5l-4.3-1.3l4.5-0.5L239.8,713z"/>
<path fill="#FFFFFF" stroke="#FFFFFF" stroke-miterlimit="10" d="M235.7,708.1l0.5,4.5l-1.3,4.3l-0.5-4.5L235.7,708.1z"/>
<path fill="#FFFFFF" stroke="#FFFFFF" stroke-miterlimit="10" d="M633.3,557.8c0,0-3.5,2.6-3.7,5.5c-0.2,2.9,2.8,6.1,2.8,6.1
	s-2.7-3.5-5.6-3.7c-2.9-0.2-5.9,2.8-5.9,2.8s3.5-2.6,3.7-5.5c0.2-2.9-2.8-6.1-2.8-6.1s2.7,3.5,5.6,3.7
	C630.2,560.8,633.3,557.8,633.3,557.8z"/>
<path fill="#FFFFFF" stroke="#FFFFFF" stroke-miterlimit="10" d="M360.5,660.8c0,0-2.4,1.8-2.5,3.8c-0.1,2,1.8,4.2,1.8,4.2
	s-1.8-2.4-3.9-2.5c-2-0.2-4,1.9-4,1.9s2.4-1.8,2.5-3.8c0.2-2-1.8-4.2-1.8-4.2s1.8,2.4,3.9,2.5C358.4,662.8,360.5,660.8,360.5,660.8z
	"/>
<path fill="#FFFFFF" stroke="#FFFFFF" stroke-miterlimit="10" d="M563.6,565.3c1.3,0,2.4,1.1,2.4,2.4c0,1.3-1.1,2.4-2.4,2.4
	c-1.3,0-2.4-1.1-2.4-2.4C561.2,566.4,562.3,565.3,563.6,565.3z"/>
<path fill="#FFFFFF" stroke="#FFFFFF" stroke-miterlimit="10" d="M565.8,701.6c0.9,0,1.5,0.7,1.5,1.5c0,0.9-0.7,1.5-1.5,1.5
	s-1.5-0.7-1.5-1.5C564.3,702.2,564.9,701.6,565.8,701.6z"/>
<path fill="#FFFFFF" stroke="#FFFFFF" stroke-miterlimit="10" d="M379.4,692.6c-0.7,0-1.2-0.6-1.2-1.2c0-0.7,0.6-1.2,1.2-1.2
	c0.7,0,1.2,0.6,1.2,1.2"/>
<path fill="#FFFFFF" stroke="#FFFFFF" stroke-miterlimit="10" d="M380,572.6c0.7,0,1.2,0.6,1.2,1.2s-0.6,1.2-1.2,1.2
	c-0.7,0-1.2-0.6-1.2-1.2S379.4,572.6,380,572.6z"/>
<path fill="#FFFFFF" stroke="#FFFFFF" stroke-miterlimit="10" d="M498.2,587.9c0.7,0,1.2,0.6,1.2,1.2c0,0.7-0.6,1.2-1.2,1.2
	s-1.2-0.6-1.2-1.2C496.9,588.5,497.5,587.9,498.2,587.9z"/>
<path fill="#FFFFFF" stroke="#FFFFFF" stroke-miterlimit="10" d="M773.6,669.9c1,0,1.8,0.8,1.8,1.8c0,1-0.8,1.8-1.8,1.8
	c-1,0-1.8-0.8-1.8-1.8C771.7,670.7,772.5,669.9,773.6,669.9z"/>
<path fill="#FFFFFF" stroke="#FFFFFF" stroke-miterlimit="10" d="M225.8,578.1c0.7,0,1.2,0.6,1.2,1.2c0,0.7-0.6,1.2-1.2,1.2
	s-1.2-0.6-1.2-1.2C224.6,578.7,225.2,578.1,225.8,578.1z"/>
<circle fill="#FFFFFF" stroke="#FFFFFF" stroke-miterlimit="10" cx="445.5" cy="584.9" r="8.7"/>
<line fill="none" stroke="#FFFFFF" stroke-width="3" stroke-miterlimit="10" x1="448.5" y1="591.4" x2="443.9" y2="608.9"/>
<line fill="none" stroke="#FFFFFF" stroke-width="3" stroke-miterlimit="10" x1="444.9" y1="585.7" x2="427.8" y2="609.8"/>
<line fill="none" stroke="#FFFFFF" stroke-width="3" stroke-miterlimit="10" x1="440" y1="582.4" x2="422.5" y2="590.1"/>
</svg>
