<svg id="Layer_1" data-name="Layer 1" xmlns="http://www.w3.org/2000/svg" viewBox="0 0 626 246"><defs><style>.cls-1{fill:none;}.cls-2{fill:#fff;}</style></defs><title>Artboard 1</title><rect class="cls-1" x="-87" y="-269" width="800" height="800"/><path class="cls-2" d="M134.2,47.4H33.4A17.41,17.41,0,0,0,16,64.8V165.6A17.41,17.41,0,0,0,33.4,183H85.1l42.1,31.6.3-31.6h6.7a17.41,17.41,0,0,0,17.4-17.4V64.8A17.41,17.41,0,0,0,134.2,47.4Zm-15,74.4,11.2,13.4-17.7,1.5,3,15.4-14.6-6.5-4.4,16.3L84.3,147.2,69.8,157.3l-4.1-15.8-24.6.8,9.3-16.4-20-9.2L49,108.2,39.9,90.1l19.1,3,1.9-17.3,12,8.1,5.7-17.2L90.3,82.4l11.2-8,4.4,13.2,18.5-5.8L118,102.2l19,6.3Z"/><path class="cls-2" d="M177,67.9h21.1v54.2l-.4,2.3L222.3,95h26.9l-27.9,31.2,27.6,43.3H222.2L197.8,127l.4,2.4v39.9H177Z"/><path class="cls-2" d="M298.8,161.2c-2.6,3.5-7.5,9.8-19.5,9.8-17.7,0-30.9-14.4-30.9-37.7,0-29.3,18.4-40.2,32.5-40.2,8.2,0,14.7,4.2,18.4,11.4V94.9h20.3v74.6H298.9v-8.3Zm-5.5-47.3a11.89,11.89,0,0,0-8.5-3.7,13.62,13.62,0,0,0-10.5,5.5c-3.6,4.7-4.5,10.6-4.5,16.4a31.38,31.38,0,0,0,2.3,12.8c2.9,6.5,7.6,8.8,11.8,8.8a12.86,12.86,0,0,0,9.2-4.2c4.5-4.9,5.5-11.4,5.5-18.1C298.7,121.7,296.1,116.7,293.3,113.9Z"/><path class="cls-2" d="M353.1,94.8v8.9C358.3,96.4,365,93,374.2,93c18.4,0,30.8,15.2,30.8,39.1,0,22.7-12.6,39.2-31.8,39.2-11.5,0-16.2-4.9-19.5-8.3v29.8H332.6v-98Zm9,17c-8.2,4.2-8.8,14.5-8.8,21,0,4.9.6,9.8,2.7,13.5,2.9,5.6,7.8,7.3,12.4,7.3,10.8,0,15.1-10.8,15.1-22.9,0-8.3-2.7-20.4-14.7-20.4A15.6,15.6,0,0,0,362.1,111.8Z"/><path class="cls-2" d="M489.6,131.9c0,24.7-17.7,39.7-39.8,39.7-24.6,0-37.2-18.3-37.2-39.2,0-22.1,13.9-39.5,39.7-39.5C477.3,92.8,489.6,111.9,489.6,131.9Zm-25.4-15.5a14.37,14.37,0,0,0-12.6-6.6,17.16,17.16,0,0,0-8.2,1.9c-8.3,4.6-9.1,15.2-9.1,20.4a39.06,39.06,0,0,0,.9,8.3c2.6,11.9,11.1,13.9,16,13.9a15.07,15.07,0,0,0,12.9-6.9c3.6-5.3,3.9-12.1,3.9-16.1C467.9,127,467.6,121.4,464.2,116.4Z"/><path class="cls-2" d="M515.6,143.4c.9,5.3,2,12.4,15.9,12.4,2.9,0,10.5-.4,10.5-6.9,0-4.5-3.7-5.7-8.3-6.9-2-.6-11.8-2.9-13.9-3.5-8.5-2.1-22-5.5-22-22.1a20.49,20.49,0,0,1,8.9-17.7c5.3-3.7,12.9-5.9,22.4-5.9,7.3,0,15.2,1.3,21.6,5.6,7,4.6,10.2,11.1,10.8,19.7l-19.8,1c-.4-2.4-.7-4.5-1.9-6.2-.3-.4-3.2-4.6-11.4-4.6-7.2,0-10.2,2.2-10.2,6,0,3,2,4.6,7.9,6,1.7.4,10.2,2.4,12.2,2.9,9.6,2.3,25.3,6,25.3,23.3,0,17.8-15.2,25-32.6,25a53.39,53.39,0,0,1-14.2-1.7c-4.9-1.1-13.1-4.2-18-12.6a23.54,23.54,0,0,1-3.3-13.2Z"/><path class="cls-2" d="M578.2,72.8h21.1V95H610v16.1H599.4v58.3H578.3V111.1H567.7V95h10.6V72.8Z"/></svg>