<svg id="Layer_1" data-name="Layer 1" xmlns="http://www.w3.org/2000/svg" viewBox="0 0 273.31 80"><defs><style>.cls-1{fill:#0072bb;}.cls-2{fill:#fff;}.cls-3{fill:#1a233c;}</style></defs><title>Artboard 1</title><path class="cls-1" d="M55.75,3H11.65A7.62,7.62,0,0,0,4,10.58v44.1a7.62,7.62,0,0,0,7.61,7.61H34.26L52.68,76.12l.13-13.83h2.93a7.62,7.62,0,0,0,7.61-7.61V10.58A7.62,7.62,0,0,0,55.75,3Z"/><path class="cls-2" d="M39.34,53.06l-5.43-6.43L27.57,51l-1.79-6.91L15,44.49l4.07-7.18-8.75-4,8.14-3.72-4-7.92L22.85,23l.83-7.57,5.25,3.54,2.49-7.53,5.12,6.87,4.9-3.5,1.93,5.78L51.46,18l-2.8,8.93L57,29.7l-7.79,5.82,4.9,5.86L46.34,42l1.31,6.74-6.39-2.84-1.93,7.13Z"/><path class="cls-3" d="M74.47,11.94H83.7V35.65l-.17,1L94.29,23.79h11.77L93.85,37.44l12.08,18.94H94.25L83.57,37.79l.17,1.05V56.3H74.47Z"/><path class="cls-3" d="M127.76,52.76A9.6,9.6,0,0,1,119.23,57c-7.74,0-13.52-6.3-13.52-16.49,0-12.82,8.05-17.59,14.22-17.59a8.74,8.74,0,0,1,8.05,5v-4.2h8.88V56.39H127.8V52.76Zm-2.41-20.69a5.2,5.2,0,0,0-3.72-1.62A6,6,0,0,0,117,32.85a11.52,11.52,0,0,0-2,7.18,13.73,13.73,0,0,0,1,5.6c1.27,2.84,3.33,3.85,5.16,3.85a5.63,5.63,0,0,0,4-1.84c2-2.14,2.41-5,2.41-7.92C127.72,35.47,126.58,33.29,125.35,32.06Z"/><path class="cls-3" d="M151.52,23.7V27.6a10.49,10.49,0,0,1,9.23-4.68c8.05,0,13.48,6.65,13.48,17.11,0,9.93-5.51,17.15-13.91,17.15a10.4,10.4,0,0,1-8.53-3.63v13h-9.23V23.7Zm3.94,7.44c-3.59,1.84-3.85,6.34-3.85,9.19a12.21,12.21,0,0,0,1.18,5.91,5.75,5.75,0,0,0,5.43,3.19c4.73,0,6.61-4.73,6.61-10,0-3.63-1.18-8.93-6.43-8.93A6.83,6.83,0,0,0,155.45,31.14Z"/><path class="cls-3" d="M211.24,39.94c0,10.81-7.74,17.37-17.41,17.37-10.76,0-16.28-8-16.28-17.15,0-9.67,6.08-17.28,17.37-17.28C205.85,22.83,211.24,31.19,211.24,39.94Zm-11.11-6.78a6.29,6.29,0,0,0-5.51-2.89,7.51,7.51,0,0,0-3.59.83c-3.63,2-4,6.65-4,8.93a17.09,17.09,0,0,0,.39,3.63c1.14,5.21,4.86,6.08,7,6.08a6.59,6.59,0,0,0,5.64-3c1.58-2.32,1.71-5.29,1.71-7A11.59,11.59,0,0,0,200.12,33.15Z"/><path class="cls-3" d="M222.61,45c.39,2.32.88,5.43,7,5.43,1.27,0,4.59-.17,4.59-3,0-2-1.62-2.49-3.63-3-.88-.26-5.16-1.27-6.08-1.53-3.72-.92-9.63-2.41-9.63-9.67a9,9,0,0,1,3.89-7.74c2.32-1.62,5.64-2.58,9.8-2.58A16.91,16.91,0,0,1,238,25.28c3.06,2,4.46,4.86,4.73,8.62l-8.66.44a6.39,6.39,0,0,0-.83-2.71c-.13-.18-1.4-2-5-2-3.15,0-4.46,1-4.46,2.63,0,1.31.88,2,3.46,2.63.74.18,4.46,1.05,5.34,1.27,4.2,1,11.07,2.63,11.07,10.19,0,7.79-6.65,10.94-14.26,10.94a23.36,23.36,0,0,1-6.21-.74A12,12,0,0,1,215.26,51a10.3,10.3,0,0,1-1.44-5.78Z"/><path class="cls-3" d="M250,14.08h9.23v9.71h4.68v7h-4.64V56.34H250V30.84H245.4v-7H250V14.08Z"/></svg>