<?xml version="1.0" encoding="utf-8"?>
<!-- Generator: Adobe Illustrator 18.1.0, SVG Export Plug-In . SVG Version: 6.00 Build 0)  -->
<svg version="1.1" id="Layer_1" xmlns="http://www.w3.org/2000/svg" xmlns:xlink="http://www.w3.org/1999/xlink" x="0px" y="0px"
	 viewBox="0 351.8 612 88.4" enable-background="new 0 351.8 612 88.4" xml:space="preserve">
<rect x="-0.2" y="351.8" fill="#AAAAAA" width="612.4" height="88.4"/>
<g>
	<g>
		<path fill="#FFFFFF" d="M187.3,368.4c2.4,0,4.5,2,4.5,4.5c0,2.4-2,4.5-4.5,4.5s-4.5-2-4.5-4.5
			C182.8,370.4,184.7,368.4,187.3,368.4z M187.3,376.7c2.1,0,3.9-1.7,3.9-3.9c0-2.1-1.7-3.9-3.9-3.9c-2.1,0-3.9,1.7-3.9,3.9
			C183.4,375,185.1,376.7,187.3,376.7z M187.3,373.2h-1.1v2.3h-0.6v-5.4h2c1.2,0,1.7,0.5,1.7,1.5c0,0.9-0.6,1.3-1.3,1.5l1.6,2.3
			h-0.7L187.3,373.2z M186.1,372.6h1.3c0.7,0,1.2-0.2,1.2-0.9c0-0.7-0.6-0.9-1.2-0.9h-1.3V372.6z"/>
	</g>
	<g>
		<g>
			<path fill="#0072BB" d="M37,369.8H5.4c-3,0-5.4,2.4-5.4,5.4v31.6c0,3.1,2.4,5.4,5.4,5.4h16.2l13.3,9.9l0.1-9.9h2
				c3.1,0,5.4-2.4,5.4-5.4v-31.6C42.5,372.2,40.1,369.8,37,369.8z"/>
			<path fill="#FFFFFF" d="M25.3,405.7l-3.9-4.6l-4.6,3.2l-1.3-5l-7.8,0.3l3-5.1l-6.3-2.9l5.8-2.7l-2.9-5.7l6,0.9l0.6-5.4l3.8,2.6
				l1.7-5.4l3.7,4.9l3.6-2.5l1.4,4.2l5.8-1.8l-2,6.4l6,1.9l-5.6,4.2l3.5,4.2l-5.5,0.5l0.9,4.8l-4.6-2L25.3,405.7L25.3,405.7z"/>
		</g>
		<g>
			<path fill="#FFFFFF" d="M50.5,376.2h6.6v17L57,394l7.8-9.3h8.5l-8.8,9.8l8.7,13.6h-8.4l-7.7-13.3l0.1,0.8v12.5h-6.6L50.5,376.2
				L50.5,376.2z"/>
			<path fill="#FFFFFF" d="M88.7,405.5c-0.8,1.1-2.3,3.1-6.1,3.1c-5.5,0-9.7-4.5-9.7-11.8c0-9.2,5.8-12.6,10.2-12.6
				c2.6,0,4.6,1.3,5.8,3.6v-3.1h6.3v23.4h-6.5V405.5L88.7,405.5z M87,390.7c-0.7-0.7-1.6-1.1-2.7-1.1c-1.2,0-2.4,0.7-3.3,1.7
				c-1.1,1.5-1.4,3.4-1.4,5.1c0,1.4,0.2,2.9,0.7,4c0.9,2,2.3,2.8,3.7,2.8c0.4,0,1.7-0.1,2.9-1.3c1.4-1.5,1.7-3.6,1.7-5.7
				C88.6,393,87.8,391.5,87,390.7z"/>
			<path fill="#FFFFFF" d="M105.8,384.7v2.8c1.6-2.3,3.8-3.4,6.6-3.4c5.8,0,9.7,4.8,9.7,12.2c0,7.1-4,12.3-10,12.3
				c-3.6,0-5.1-1.5-6.1-2.7v9.3h-6.6v-30.7h6.4V384.7z M108.5,390c-2.6,1.3-2.8,4.6-2.8,6.6c0,1.5,0.2,3.1,0.8,4.3
				c0.9,1.7,2.4,2.3,3.9,2.3c3.4,0,4.7-3.4,4.7-7.1c0-2.7-0.8-6.4-4.6-6.4C110,389.5,109.2,389.7,108.5,390z"/>
			<path fill="#FFFFFF" d="M148.5,396.3c0,7.8-5.5,12.4-12.4,12.4c-7.8,0-11.6-5.7-11.6-12.3c0-6.9,4.4-12.4,12.4-12.4
				C144.6,384.1,148.5,390,148.5,396.3z M140.6,391.4c-1.2-1.8-2.9-2-4-2c-0.8,0-1.7,0.1-2.6,0.6c-2.7,1.4-2.9,4.8-2.9,6.4
				c0,0.8,0.1,1.7,0.3,2.7c0.8,3.8,3.5,4.4,5,4.4c1.6,0,3.1-0.7,4.1-2.1c1.1-1.6,1.2-3.8,1.2-5.1
				C141.8,394.8,141.7,392.9,140.6,391.4z"/>
			<path fill="#FFFFFF" d="M156.7,399.9c0.3,1.6,0.6,3.9,5,3.9c0.9,0,3.3-0.1,3.3-2.1c0-1.4-1.1-1.8-2.7-2.1
				c-0.6-0.2-3.7-0.9-4.4-1.1c-2.7-0.7-6.9-1.7-6.9-6.9c0-1.3,0.2-3.7,2.8-5.5c1.6-1.1,4.1-1.8,7-1.8c2.3,0,4.8,0.4,6.7,1.7
				c2.2,1.4,3.2,3.5,3.4,6.2l-6.2,0.3c-0.1-0.8-0.2-1.4-0.6-1.9c-0.1-0.1-1-1.4-3.6-1.4c-2.2,0-3.2,0.7-3.2,1.9
				c0,0.9,0.6,1.4,2.4,1.9c0.5,0.1,3.2,0.8,3.9,0.9c3.1,0.7,8,1.9,8,7.3c0,5.6-4.8,7.9-10.2,7.9c-1.8,0-3.4-0.2-4.5-0.5
				c-1.5-0.4-4.1-1.3-5.6-4c-1-1.6-1-3.1-1-4.2L156.7,399.9z"/>
			<path fill="#FFFFFF" d="M176.4,377.7h6.6v6.9h3.4v5H183v18.3h-6.6v-18.3H173v-5h3.4V377.7z"/>
		</g>
	</g>
</g>
<g>
	<g>
		<path fill="#1A233C" d="M399.4,368.4c2.4,0,4.5,2,4.5,4.5c0,2.4-2,4.5-4.5,4.5s-4.5-2-4.5-4.5
			C394.9,370.4,396.9,368.4,399.4,368.4z M399.4,376.7c2.1,0,3.9-1.7,3.9-3.9c0-2.1-1.7-3.9-3.9-3.9c-2.1,0-3.9,1.7-3.9,3.9
			C395.6,375,397.3,376.7,399.4,376.7z M399.4,373.2h-1.1v2.3h-0.6v-5.4h2c1.2,0,1.7,0.5,1.7,1.5c0,0.9-0.6,1.3-1.3,1.5l1.6,2.3
			h-0.7L399.4,373.2z M398.3,372.6h1.3c0.7,0,1.2-0.2,1.2-0.9c0-0.7-0.6-0.9-1.2-0.9h-1.3V372.6z"/>
	</g>
	<g>
		<path fill="#0072BB" d="M249.2,369.8h-31.6c-3,0-5.4,2.4-5.4,5.4v31.6c0,3.1,2.4,5.4,5.4,5.4h16.2l13.3,9.9l0.1-9.9h2
			c3.1,0,5.4-2.4,5.4-5.4v-31.6C254.7,372.2,252.2,369.8,249.2,369.8z"/>
		<path fill="#FFFFFF" d="M237.5,405.7l-3.9-4.6l-4.6,3.2l-1.3-5l-7.8,0.3l3-5.1l-6.3-2.9l5.8-2.7l-2.9-5.7l6,0.9l0.6-5.4l3.8,2.6
			l1.7-5.4l3.7,4.9l3.6-2.5l1.4,4.2l5.8-1.8l-2,6.4l6,1.9l-5.6,4.2l3.5,4.2l-5.5,0.5l0.9,4.8l-4.6-2L237.5,405.7L237.5,405.7z"/>
	</g>
	<g>
		<path fill="#1A233C" d="M262.6,376.2h6.6v17l-0.1,0.7l7.8-9.3h8.5l-8.8,9.8l8.7,13.6h-8.4l-7.6-13.3l0.1,0.8v12.5h-6.6
			L262.6,376.2L262.6,376.2z"/>
		<path fill="#1A233C" d="M300.9,405.5c-0.8,1.1-2.3,3.1-6.1,3.1c-5.5,0-9.7-4.5-9.7-11.8c0-9.2,5.8-12.6,10.2-12.6
			c2.5,0,4.6,1.3,5.8,3.6v-3.1h6.3v23.4h-6.5V405.5L300.9,405.5z M299.2,390.7c-0.7-0.7-1.6-1.1-2.7-1.1c-1.2,0-2.4,0.7-3.3,1.7
			c-1.1,1.5-1.4,3.4-1.4,5.1c0,1.4,0.2,2.9,0.7,4c0.9,2,2.3,2.8,3.7,2.8c0.4,0,1.7-0.1,2.9-1.3c1.4-1.5,1.7-3.6,1.7-5.7
			C300.8,393,300,391.5,299.2,390.7z"/>
		<path fill="#1A233C" d="M317.9,384.7v2.8c1.6-2.3,3.8-3.4,6.6-3.4c5.8,0,9.7,4.8,9.7,12.2c0,7.1-4,12.3-10,12.3
			c-3.6,0-5.1-1.5-6.1-2.7v9.3h-6.6v-30.7h6.4V384.7z M320.7,390c-2.5,1.3-2.8,4.6-2.8,6.6c0,1.5,0.2,3.1,0.8,4.3
			c0.9,1.7,2.4,2.3,3.9,2.3c3.4,0,4.7-3.4,4.7-7.1c0-2.7-0.8-6.4-4.6-6.4C322.1,389.5,321.4,389.7,320.7,390z"/>
		<path fill="#1A233C" d="M360.7,396.3c0,7.8-5.5,12.4-12.4,12.4c-7.8,0-11.6-5.7-11.6-12.3c0-6.9,4.4-12.4,12.4-12.4
			C356.8,384.1,360.7,390,360.7,396.3z M352.7,391.4c-1.2-1.8-2.9-2-4-2c-0.8,0-1.7,0.1-2.5,0.6c-2.7,1.4-2.9,4.8-2.9,6.4
			c0,0.8,0.1,1.7,0.3,2.7c0.8,3.8,3.5,4.4,5,4.4c1.6,0,3.1-0.7,4.1-2.1c1.1-1.6,1.2-3.8,1.2-5.1
			C353.9,394.8,353.8,392.9,352.7,391.4z"/>
		<path fill="#1A233C" d="M368.8,399.9c0.3,1.6,0.6,3.9,5,3.9c0.9,0,3.3-0.1,3.3-2.1c0-1.4-1.1-1.8-2.7-2.1
			c-0.6-0.2-3.7-0.9-4.4-1.1c-2.7-0.7-6.9-1.7-6.9-6.9c0-1.3,0.2-3.7,2.8-5.5c1.6-1.1,4.1-1.8,7-1.8c2.3,0,4.8,0.4,6.7,1.7
			c2.2,1.4,3.2,3.5,3.4,6.2l-6.2,0.3c-0.1-0.8-0.2-1.4-0.6-1.9c-0.1-0.1-1-1.4-3.6-1.4c-2.2,0-3.2,0.7-3.2,1.9
			c0,0.9,0.6,1.4,2.4,1.9c0.5,0.1,3.2,0.8,3.9,0.9c3.1,0.7,8,1.9,8,7.3c0,5.6-4.8,7.9-10.2,7.9c-1.8,0-3.4-0.2-4.5-0.5
			c-1.5-0.4-4.1-1.3-5.6-4c-1-1.6-1-3.1-1-4.2L368.8,399.9z"/>
		<path fill="#1A233C" d="M388.5,377.7h6.6v6.9h3.4v5h-3.4v18.3h-6.6v-18.3h-3.4v-5h3.4V377.7z"/>
	</g>
</g>
<g>
	<g>
		<path fill="#FFFFFF" d="M605.5,368.4c2.4,0,4.5,2,4.5,4.5c0,2.4-2,4.5-4.5,4.5c-2.4,0-4.5-2-4.5-4.5
			C601,370.4,602.9,368.4,605.5,368.4z M605.5,376.7c2.1,0,3.9-1.7,3.9-3.9c0-2.1-1.7-3.9-3.9-3.9s-3.9,1.7-3.9,3.9
			C601.6,375,603.3,376.7,605.5,376.7z M605.5,373.2h-1.1v2.3h-0.6v-5.4h2c1.2,0,1.7,0.5,1.7,1.5c0,0.9-0.6,1.3-1.3,1.5l1.6,2.3
			h-0.7L605.5,373.2z M604.3,372.6h1.3c0.7,0,1.2-0.2,1.2-0.9c0-0.7-0.6-0.9-1.2-0.9h-1.3V372.6z"/>
	</g>
	<path fill="#FFFFFF" d="M455.2,369.8h-31.6c-3,0-5.4,2.4-5.4,5.4v31.6c0,3.1,2.4,5.4,5.4,5.4h16.2l13.3,9.9l0.1-9.9h2
		c3.1,0,5.4-2.4,5.4-5.4v-31.6C460.7,372.2,458.3,369.8,455.2,369.8z M450.5,393.1l3.5,4.2l-5.5,0.5l0.9,4.8l-4.6-2l-1.3,5.1
		l-3.9-4.6l-4.6,3.2l-1.3-5l-7.8,0.3l3-5.1l-6.3-2.9l5.8-2.7l-2.9-5.7l6,0.9l0.6-5.4l3.8,2.6l1.7-5.4l3.7,4.9l3.6-2.5l1.4,4.2
		l5.8-1.8l-2,6.4l6,1.9L450.5,393.1z"/>
	<g>
		<path fill="#FFFFFF" d="M468.7,376.2h6.6v17l-0.1,0.7l7.8-9.3h8.5l-8.8,9.8l8.7,13.6H483l-7.7-13.3l0.1,0.8v12.5h-6.6L468.7,376.2
			L468.7,376.2z"/>
		<path fill="#FFFFFF" d="M506.9,405.5c-0.8,1.1-2.3,3.1-6.1,3.1c-5.5,0-9.7-4.5-9.7-11.8c0-9.2,5.8-12.6,10.2-12.6
			c2.6,0,4.6,1.3,5.8,3.6v-3.1h6.3v23.4h-6.5V405.5L506.9,405.5z M505.2,390.7c-0.7-0.7-1.6-1.1-2.7-1.1c-1.2,0-2.4,0.7-3.3,1.7
			c-1.1,1.5-1.4,3.4-1.4,5.1c0,1.4,0.2,2.9,0.7,4c0.9,2,2.3,2.8,3.7,2.8c0.4,0,1.7-0.1,2.9-1.3c1.4-1.5,1.7-3.6,1.7-5.7
			C506.8,393,506,391.5,505.2,390.7z"/>
		<path fill="#FFFFFF" d="M524,384.7v2.8c1.6-2.3,3.8-3.4,6.6-3.4c5.8,0,9.7,4.8,9.7,12.2c0,7.1-4,12.3-10,12.3
			c-3.6,0-5.1-1.5-6.1-2.7v9.3h-6.6v-30.7h6.4V384.7z M526.7,390c-2.5,1.3-2.8,4.6-2.8,6.6c0,1.5,0.2,3.1,0.8,4.3
			c0.9,1.7,2.4,2.3,3.9,2.3c3.4,0,4.7-3.4,4.7-7.1c0-2.7-0.8-6.4-4.6-6.4C528.2,389.5,527.4,389.7,526.7,390z"/>
		<path fill="#FFFFFF" d="M566.7,396.3c0,7.8-5.5,12.4-12.4,12.4c-7.8,0-11.6-5.7-11.6-12.3c0-6.9,4.4-12.4,12.4-12.4
			C562.8,384.1,566.7,390,566.7,396.3z M558.8,391.4c-1.2-1.8-2.9-2-4-2c-0.8,0-1.7,0.1-2.5,0.6c-2.7,1.4-2.9,4.8-2.9,6.4
			c0,0.8,0.1,1.7,0.3,2.7c0.8,3.8,3.5,4.4,5,4.4c1.6,0,3.1-0.7,4.1-2.1c1.1-1.6,1.2-3.8,1.2-5.1C560,394.8,559.9,392.9,558.8,391.4z
			"/>
		<path fill="#FFFFFF" d="M574.9,399.9c0.3,1.6,0.6,3.9,5,3.9c0.9,0,3.3-0.1,3.3-2.1c0-1.4-1.1-1.8-2.7-2.1
			c-0.6-0.2-3.7-0.9-4.4-1.1c-2.7-0.7-6.9-1.7-6.9-6.9c0-1.3,0.2-3.7,2.8-5.5c1.6-1.1,4.1-1.8,7-1.8c2.3,0,4.8,0.4,6.7,1.7
			c2.2,1.4,3.2,3.5,3.4,6.2l-6.2,0.3c-0.1-0.8-0.2-1.4-0.6-1.9c-0.1-0.1-1-1.4-3.6-1.4c-2.2,0-3.2,0.7-3.2,1.9
			c0,0.9,0.6,1.4,2.4,1.9c0.5,0.1,3.2,0.8,3.9,0.9c3.1,0.7,8,1.9,8,7.3c0,5.6-4.8,7.9-10.2,7.9c-1.8,0-3.4-0.2-4.5-0.5
			c-1.5-0.4-4.1-1.3-5.6-4c-1-1.6-1-3.1-1-4.2L574.9,399.9z"/>
		<path fill="#FFFFFF" d="M594.6,377.7h6.6v6.9h3.4v5h-3.4v18.3h-6.6v-18.3h-3.4v-5h3.4V377.7z"/>
	</g>
</g>
</svg>
