<?xml version="1.0" encoding="utf-8"?>
<!-- Generator: Adobe Illustrator 17.0.0, SVG Export Plug-In . SVG Version: 6.00 Build 0)  -->
<!DOCTYPE svg PUBLIC "-//W3C//DTD SVG 1.1//EN" "http://www.w3.org/Graphics/SVG/1.1/DTD/svg11.dtd">
<svg version="1.1" id="Isolation_Mode" xmlns="http://www.w3.org/2000/svg" xmlns:xlink="http://www.w3.org/1999/xlink" x="0px"
	 y="0px" width="67.997px" height="68px" viewBox="6.676 6.677 67.997 68" enable-background="new 6.676 6.677 67.997 68"
	 xml:space="preserve">
<g>
	<path fill="#00BFCD" d="M65.961,6.677h-50.57c-4.808,0-8.715,3.901-8.715,8.716v50.568c0,4.815,3.907,8.716,8.715,8.716h25.955
		h21.277h3.337c4.813,0,8.714-3.901,8.714-8.716V15.393C74.674,10.577,70.774,6.677,65.961,6.677z"/>
</g>
<g>
	<path fill="#FFFFFF" d="M52.156,22.955c-6.887,0-10.631,3.98-12.066,9.722l0,0c-0.379,1.434-0.671,3.011-0.813,4.638
		c2.197,2.332,3.406,5.512,3.406,9.052c0,2.222-0.454,4.264-1.279,6.083c1.963,3.81,5.348,6.217,10.725,6.217
		c9.808,0,13.011-8.024,13.011-17.929C65.139,30.834,61.964,22.955,52.156,22.955z M52.128,50.93c-3.334,0-4.301-4.542-4.301-10.195
		c0-5.604,0.966-10.05,4.301-10.05c3.334,0,4.301,4.445,4.301,10.05C56.429,46.388,55.462,50.93,52.128,50.93z"/>
	<path fill="#FFFFFF" d="M28.435,35.222c-1.305,0-2.513,0.574-2.513,0.574h-0.097c0,0,0.193-0.496,0.193-1.172l0.193-3.007h11.673
		v-8.359H18.869l-1.402,18.208l4.494,1.76c0,0,1.981-1.125,4.638-1.125c3.14,0,5.508,1.612,5.508,4.317
		c0,2.851-2.561,4.26-4.831,4.26c-3.865,0-7.006-3.088-7.006-3.088l-4.059,6.525c0,0,4.155,4.543,11.789,4.543
		c7.538,0,12.804-5.051,12.804-12.202C40.805,40.225,36.649,35.222,28.435,35.222z"/>
</g>
</svg>
