<?xml version="1.0" encoding="utf-8"?>
<!-- Generator: Adobe Illustrator 17.1.0, SVG Export Plug-In . SVG Version: 6.00 Build 0)  -->
<!DOCTYPE svg PUBLIC "-//W3C//DTD SVG 1.1//EN" "http://www.w3.org/Graphics/SVG/1.1/DTD/svg11.dtd">
<svg version="1.1" id="Layer_1" xmlns="http://www.w3.org/2000/svg" xmlns:xlink="http://www.w3.org/1999/xlink" x="0px" y="0px"
	 viewBox="0 0 222.1 69.7" enable-background="new 0 0 222.1 69.7" xml:space="preserve">
<g>
	<path fill="#FFFFFF" d="M47.1,5.1H10.8c-3.4,0-6.5,2.6-6.5,6v36.2c0,3.5,3,6.7,6.5,6.7h18.6l15.1,11.4l0.1-11.4h2.4
		c3.4,0,6.3-3.3,6.3-6.7V11.2C53.3,7.7,50.5,5.1,47.1,5.1z M41.7,31.7l4,4.8L39.3,37l1.1,5.5l-5.3-2.4l-1.6,5.9l-4.5-5.3l-5.2,3.6
		l-1.5-5.7l-8.8,0.3l3.3-5.9l-7.2-3.3l6.7-3l-3.3-6.5l6.9,1.1l0.7-6.2l4.3,2.9l2-6.2l4.2,5.7l4-2.9l1.6,4.7l6.7-2.1l-2.3,7.3
		l6.8,2.3L41.7,31.7z"/>
	<g>
		<path fill="#FFFFFF" d="M62.4,12.3H70v19.5l-0.2,0.8L78.7,22h9.7l-10,11.2l9.9,15.6h-9.6l-8.7-15.2l0.2,0.9v14.4h-7.6V12.3z"/>
		<path fill="#FFFFFF" d="M106.2,45.8c-0.9,1.2-2.7,3.5-7,3.5c-6.4,0-11.1-5.2-11.1-13.5c0-10.5,6.6-14.5,11.7-14.5
			c2.9,0,5.3,1.5,6.6,4.1V22h7.3v26.8h-7.4V45.8z M104.3,28.8c-0.8-0.8-1.9-1.3-3-1.3c-1.4,0-2.8,0.8-3.8,2
			c-1.3,1.7-1.6,3.8-1.6,5.9c0,1.7,0.2,3.3,0.8,4.6c1,2.3,2.7,3.2,4.2,3.2c0.5,0,2-0.1,3.3-1.5c1.6-1.8,2-4.1,2-6.5
			C106.2,31.6,105.3,29.8,104.3,28.8z"/>
		<path fill="#FFFFFF" d="M125.8,22v3.2c1.9-2.6,4.3-3.9,7.6-3.9c6.6,0,11.1,5.5,11.1,14.1c0,8.2-4.5,14.1-11.4,14.1
			c-4.1,0-5.8-1.8-7-3v10.7h-7.6V22H125.8z M129,28.1c-2.9,1.5-3.2,5.2-3.2,7.5c0,1.8,0.2,3.5,1,4.9c1,2,2.8,2.6,4.4,2.6
			c3.9,0,5.4-3.9,5.4-8.2c0-3-1-7.3-5.3-7.3C130.6,27.6,129.7,27.7,129,28.1z"/>
		<path fill="#FFFFFF" d="M174.8,35.3c0,8.9-6.4,14.3-14.3,14.3c-8.8,0-13.4-6.6-13.4-14.1c0-8,5-14.2,14.3-14.2
			C170.4,21.2,174.8,28.1,174.8,35.3z M165.7,29.7c-1.4-2.1-3.3-2.4-4.5-2.4c-0.9,0-2,0.2-2.9,0.7c-3,1.7-3.3,5.5-3.3,7.3
			c0,1,0.1,2,0.3,3c0.9,4.3,4,5,5.7,5c1.9,0,3.6-0.9,4.6-2.5c1.3-1.9,1.4-4.3,1.4-5.8C167,33.5,166.9,31.5,165.7,29.7z"/>
		<path fill="#FFFFFF" d="M184.2,39.4c0.3,1.9,0.7,4.4,5.7,4.4c1,0,3.8-0.2,3.8-2.5c0-1.6-1.3-2.1-3-2.5c-0.7-0.2-4.2-1-5-1.2
			c-3-0.8-7.9-2-7.9-8c0-1.5,0.3-4.2,3.2-6.4c1.9-1.3,4.6-2.1,8.1-2.1c2.6,0,5.5,0.5,7.8,2c2.5,1.7,3.7,4,3.9,7.1l-7.1,0.4
			c-0.2-0.9-0.3-1.6-0.7-2.2c-0.1-0.2-1.1-1.7-4.1-1.7c-2.6,0-3.7,0.8-3.7,2.2c0,1.1,0.7,1.7,2.8,2.2c0.6,0.2,3.7,0.9,4.4,1
			c3.5,0.8,9.1,2.2,9.1,8.4c0,6.4-5.5,9-11.7,9c-2.1,0-3.8-0.3-5.1-0.6c-1.8-0.4-4.7-1.5-6.5-4.5c-1.1-1.9-1.2-3.6-1.2-4.8
			L184.2,39.4z"/>
		<path fill="#FFFFFF" d="M206.7,14.1h7.6v8h3.8v5.8h-3.8v21h-7.6v-21h-3.8V22h3.8V14.1z"/>
	</g>
</g>
</svg>
