<?xml version="1.0" encoding="utf-8"?>
<!-- Generator: Adobe Illustrator 19.1.0, SVG Export Plug-In . SVG Version: 6.00 Build 0)  -->
<svg version="1.1" id="burst" xmlns="http://www.w3.org/2000/svg" xmlns:xlink="http://www.w3.org/1999/xlink" x="0px" y="0px"
	 viewBox="0 0 55.1 68" style="enable-background:new 0 0 55.1 68;" xml:space="preserve">
<style type="text/css">
	.st0{fill:#0D73BB;}
	.st1{fill:#FFFFFF;}
</style>
<g>
	<path class="st0" d="M48.1,0h-41C3.2,0,0,3.2,0,7.1v41c0,3.9,3.2,7.1,7.1,7.1h21L45.3,68l0.1-12.9h2.7c3.9,0,7.1-3.2,7.1-7.1v-41
		C55.1,3.2,52,0,48.1,0z"/>
	<path class="st1" d="M32.8,46.6l-5.1-6l-5.9,4.1l-1.7-6.4l-10,0.3l3.8-6.7l-8.2-3.7l7.6-3.4l-3.7-7.4l7.8,1.2l0.8-7l4.9,3.3l2.3-7
		l4.8,6.4l4.6-3.3l1.8,5.4l7.5-2.4l-2.6,8.3l7.7,2.6L42,30.3l4.5,5.5l-7.2,0.6l1.2,6.3l-5.9-2.7L32.8,46.6L32.8,46.6z"/>
</g>
</svg>
