<?xml version="1.0" standalone="no"?>
<!DOCTYPE svg PUBLIC "-//W3C//DTD SVG 1.1//EN" "http://www.w3.org/Graphics/SVG/1.1/DTD/svg11.dtd" >
<svg xmlns="http://www.w3.org/2000/svg">
<metadata></metadata>
<defs>
<font id="centrale_sans_regularregular" horiz-adv-x="1323" >
<font-face units-per-em="2048" ascent="1536" descent="-512" />
<missing-glyph horiz-adv-x="532" />
<glyph unicode="&#xfb01;" horiz-adv-x="1153" d="M29 -227q61 14 86.5 60t40.5 142l172 961h-146l19 104l153 25l21 109q31 164 140.5 263t287.5 99q192 0 332 -98l-68 -105q-126 66 -258 66q-120 0 -179.5 -54t-78.5 -149l-27 -131h596l-188 -1065h-168l168 936h-430l-166 -922q-16 -90 -35 -148.5t-51 -107t-79 -75.5 t-116 -41z" />
<glyph unicode="&#xfb02;" horiz-adv-x="1202" d="M29 -227q62 14 86 58.5t41 143.5l172 961h-146l19 104l153 25l19 109q33 169 149.5 265.5t280.5 96.5q174 0 269.5 -105t66.5 -270l-166 -936q-8 -43 6 -59t49 -16q26 0 62 4l-23 -125q-41 -29 -115 -29q-82 0 -122.5 50t-20.5 161l172 967q17 101 -35 161t-160 60 q-87 0 -155 -54.5t-84 -152.5l-23 -127h240l-23 -129h-239l-166 -922q-32 -180 -91 -263.5t-190 -108.5z" />
<glyph unicode="&#xfb03;" horiz-adv-x="1761" d="M29 -227q62 14 86 59t41 145l172 959h-146l21 104l151 25l23 119q31 163 111 247.5t229 84.5q47 0 95 -8t72 -16l25 -9l-32 -113l-19 4q-18 3 -35.5 6t-42.5 6t-45 3q-83 0 -124.5 -44.5t-59.5 -140.5l-27 -139h439l20 109q31 164 140.5 263t287.5 99q192 0 332 -98 l-68 -105q-126 66 -258 66q-216 0 -258 -203l-26 -131h596l-189 -1065h-168l168 936h-430l-166 -922q-16 -90 -35 -148.5t-50.5 -107t-78.5 -75.5t-116 -41l-27 131q61 14 86.5 60t40.5 142l172 961h-434l-166 -922q-17 -91 -35.5 -149t-50 -106.5t-78.5 -75.5t-117 -41z " />
<glyph unicode="&#xfb04;" horiz-adv-x="1808" d="M29 -227q62 14 86 59t41 145l172 959h-146l21 104l151 25l23 119q31 164 111.5 248t228.5 84q47 0 95 -8t72 -16l25 -9l-30 -113q-1 0 -19 3.5t-35 6.5t-42.5 6t-45.5 3q-83 0 -123.5 -43.5t-60.5 -141.5l-29 -139h437l18 109q29 169 146.5 265.5t283.5 96.5 q174 0 269.5 -105t66.5 -270l-166 -936q-8 -43 6 -59t49 -16q26 0 62 4l-23 -125q-40 -29 -114 -29q-82 0 -123 50t-21 161l172 967q17 99 -34.5 160t-151.5 61q-90 0 -159.5 -51t-88.5 -156l-23 -127h240l-22 -129h-242l-162 -922q-32 -180 -91.5 -263.5t-190.5 -108.5 l-27 131q62 14 86 58.5t41 143.5l172 961h-432l-166 -922q-33 -186 -91.5 -266t-189.5 -106z" />
<glyph horiz-adv-x="2048" />
<glyph horiz-adv-x="2048" />
<glyph unicode="&#xd;" horiz-adv-x="2048" />
<glyph unicode=" "  horiz-adv-x="532" />
<glyph unicode="&#x09;" horiz-adv-x="532" />
<glyph unicode="&#xa0;" horiz-adv-x="532" />
<glyph unicode="!" horiz-adv-x="528" d="M117 76q0 53 40 90t95 37q41 0 66.5 -25.5t25.5 -66.5q0 -53 -38 -90t-93 -37q-42 0 -69 26t-27 66zM219 416l146 1018h202l-215 -1018h-133z" />
<glyph unicode="&#x22;" horiz-adv-x="829" d="M250 895l108 539h195l-201 -539h-102zM623 895l110 539h195l-201 -539h-104z" />
<glyph unicode="#" horiz-adv-x="1638" d="M117 334l55 139h281l165 469h-278l51 139h277l135 353h143l-131 -353h428l131 353h146l-134 -353h281l-53 -139h-275l-170 -469h281l-51 -139h-281l-127 -334h-141l127 334h-432l-127 -334h-146l129 334h-284zM598 473h428l168 469h-430z" />
<glyph unicode="$" horiz-adv-x="1204" d="M90 131l82 127q54 -38 170.5 -80.5t253.5 -42.5q160 0 254 69t94 189q0 50 -24 89.5t-64.5 66t-93 49.5t-110.5 43.5t-116 43.5t-110.5 54t-93 70.5t-64.5 98.5t-24 132q0 189 133 299t362 115l33 176h111l-35 -182q169 -21 346 -111l-66 -135q-26 14 -66.5 32t-130 41 t-171.5 23q-152 0 -248 -65t-96 -186q0 -50 24 -89.5t64.5 -66.5t93 -49.5t110.5 -43.5t116 -43.5t110.5 -54t93 -71t64.5 -98.5t24 -132q0 -193 -134.5 -302t-356.5 -117l-31 -168h-109l31 172q-133 11 -246.5 55t-179.5 92z" />
<glyph unicode="%" horiz-adv-x="1867" d="M248 1065q0 103 46.5 192t131 143t188.5 54q145 0 233.5 -83.5t88.5 -227.5q0 -159 -105 -274t-264 -115q-144 0 -231.5 83t-87.5 228zM373 1065q0 -99 52 -151t142 -52q105 0 173.5 84t68.5 197q0 99 -51.5 151t-141.5 52q-104 0 -173.5 -84.5t-69.5 -196.5zM393 0 l1077 1434h148l-1075 -1434h-150zM1083 291q0 159 105 274t264 115q143 0 231.5 -83t88.5 -226q0 -160 -105 -275.5t-264 -115.5q-144 0 -232 84t-88 227zM1208 291q0 -98 52 -150.5t143 -52.5q104 0 174 84.5t70 196.5q0 99 -51.5 151.5t-141.5 52.5q-106 0 -176 -84.5 t-70 -197.5z" />
<glyph unicode="&#x26;" horiz-adv-x="1310" d="M115 354q0 66 19.5 124t50 102t80.5 87.5t99 75t119 70.5q-42 56 -73 128t-31 138q0 147 115.5 251t273.5 104q113 0 193.5 -64.5t87.5 -169.5q19 -245 -340 -422l274 -393q9 11 23.5 31.5t44 80.5t41.5 117h131q-10 -55 -30.5 -110.5t-41.5 -95.5t-41 -72.5t-32 -49.5 l-13 -16l190 -270h-190l-113 164q-190 -164 -438 -164q-102 0 -191.5 40t-148.5 122.5t-59 191.5zM272 381q0 -102 81.5 -164.5t189.5 -62.5q181 0 327 125l-307 434q-135 -67 -213 -146.5t-78 -185.5zM532 1092q0 -22 5 -43t18 -45t21.5 -37t30 -42.5t28.5 -39.5 q56 26 97 50.5t82 57.5t63 72.5t22 83.5q0 64 -44.5 101.5t-109.5 37.5q-86 0 -149.5 -57t-63.5 -139z" />
<glyph unicode="'" horiz-adv-x="456" d="M250 895l112 539h195q-22 -57 -94.5 -250t-110.5 -289h-102z" />
<glyph unicode="(" horiz-adv-x="733" d="M139 455q0 566 662 979l63 -113q-87 -59 -164 -126t-150 -152t-125.5 -175.5t-84 -199t-31.5 -219.5q0 -192 83.5 -358t199.5 -279l-92 -99q-65 54 -125 126.5t-115 166t-88 211t-33 238.5z" />
<glyph unicode=")" horiz-adv-x="731" d="M-33 -174q111 75 205.5 163.5t176.5 198.5t128.5 242t46.5 270q0 100 -25 197.5t-67.5 178.5t-89.5 145t-100 116l92 97q64 -54 124 -126.5t114.5 -166t87 -211t32.5 -238.5q0 -564 -657 -979z" />
<glyph unicode="*" horiz-adv-x="913" d="M266 1085l264 48l-204 174l80 77l172 -204l47 262l106 -29l-90 -252l250 92l31 -106l-265 -47l205 -174l-80 -78l-172 205l-47 -262l-104 28l90 252l-252 -92z" />
<glyph unicode="+" horiz-adv-x="1032" d="M176 608l21 119h335l60 338h121l-60 -338h338l-22 -119h-338l-58 -336h-120l59 336h-336z" />
<glyph unicode="," horiz-adv-x="514" d="M53 -199q17 9 43 27.5t57.5 47t53.5 65t22 69.5q-18 -20 -51 -20q-38 0 -58 22t-20 58q0 54 43 91.5t93 37.5q59 0 89.5 -43.5t30.5 -104.5q0 -55 -23.5 -105t-64 -89t-86 -68.5t-98.5 -52.5z" />
<glyph unicode="-" horiz-adv-x="1026" d="M201 612l20 119h737l-22 -119h-735z" />
<glyph unicode="." horiz-adv-x="481" d="M98 84q0 51 40 89t91 38q41 0 69 -28t28 -68q0 -50 -41.5 -87.5t-94.5 -37.5q-40 0 -66 27t-26 67z" />
<glyph unicode="/" horiz-adv-x="1046" d="M29 -72l989 1571h147l-991 -1571h-145z" />
<glyph unicode="0" horiz-adv-x="1452" d="M190 580q0 129 30 255t90 237.5t142 197t192.5 135t234.5 49.5q246 0 388 -167.5t142 -436.5q0 -128 -29.5 -254t-89 -236.5t-140.5 -195.5t-191.5 -134.5t-235.5 -49.5q-165 0 -286.5 77t-184 212.5t-62.5 310.5zM362 575q0 -203 95.5 -325.5t269.5 -122.5 q90 0 171.5 42t142.5 113.5t106.5 164.5t68.5 198.5t23 210.5q0 203 -96.5 327t-270.5 124q-112 0 -209.5 -65t-162 -169.5t-101.5 -234.5t-37 -263z" />
<glyph unicode="1" horiz-adv-x="677" d="M219 1260l336 174h123l-252 -1434h-160l215 1227l-2 4l-219 -94z" />
<glyph unicode="2" horiz-adv-x="1132" d="M29 0l24 137l582 467q78 62 127.5 106.5t99 102.5t73 118t23.5 126q0 110 -73 176.5t-199 66.5q-71 0 -159.5 -19t-157.5 -46l-37 125q205 94 387 94q125 0 219.5 -53t142 -140.5t47.5 -195.5q0 -76 -26 -148.5t-62 -126.5t-95 -113t-103.5 -96t-108.5 -86 q-5 -4 -8.5 -6.5t-7.5 -5.5l-449 -340h758l-25 -143h-972z" />
<glyph unicode="3" horiz-adv-x="1122" d="M76 84l78 119q137 -72 295 -72q104 0 196 36t151.5 108.5t59.5 166.5q0 111 -80.5 175t-204.5 83q-34 5 -176 5l23 120q135 0 178 6q56 6 107.5 24t98.5 48t75 77.5t28 106.5q0 98 -75.5 153.5t-190.5 55.5q-137 0 -301 -59l-43 125q204 92 373 92q176 0 289.5 -98 t113.5 -248q0 -130 -86 -221t-209 -125q112 -31 179 -121t67 -215q0 -103 -48.5 -189t-129.5 -141.5t-183 -85.5t-212 -30q-214 0 -373 104z" />
<glyph unicode="4" horiz-adv-x="1206" d="M76 358l22 123l908 953h129l-164 -930h176l-25 -146h-176l-63 -358h-154l64 358h-717zM297 504h522l113 653z" />
<glyph unicode="5" horiz-adv-x="1173" d="M78 84l86 131q54 -32 145.5 -54t188.5 -22q80 0 156.5 26.5t138.5 73.5t99.5 119t37.5 156q0 116 -82.5 192t-210.5 76t-270 -92l-123 68l159 676h752l-27 -154h-616l-94 -418q115 68 274 68q171 0 288.5 -119t117.5 -287q0 -104 -33 -192.5t-91 -152.5t-136.5 -109.5 t-170 -67.5t-190.5 -22q-218 0 -399 104z" />
<glyph unicode="6" horiz-adv-x="1296" d="M186 541q0 80 13.5 165.5t42.5 175t70.5 172t102 156t132.5 127.5t165.5 85.5t198.5 31.5q179 0 349 -82l-70 -123q-143 58 -279 58q-102 0 -190.5 -38t-150 -98t-108.5 -140t-73.5 -159t-38.5 -159q60 105 184 167t259 62q186 0 310 -120.5t124 -315.5 q0 -148 -74 -269.5t-200 -189t-275 -67.5q-225 0 -358.5 153.5t-133.5 407.5zM365 430q0 -126 84.5 -211.5t222.5 -85.5q160 0 271.5 112.5t111.5 258.5q0 122 -80.5 207.5t-222.5 85.5q-162 0 -274.5 -109.5t-112.5 -257.5z" />
<glyph unicode="7" horiz-adv-x="1050" d="M225 0l750 1282h-750l29 152h940l-27 -140l-759 -1294h-183z" />
<glyph unicode="8" horiz-adv-x="1245" d="M158 385q0 146 89 250.5t240 140.5q-89 34 -141.5 114.5t-52.5 184.5q0 162 121 270.5t321 108.5q179 -2 291.5 -102.5t112.5 -261.5q0 -126 -66 -214.5t-192 -121.5q107 -35 183 -134.5t75 -220.5q0 -122 -69 -219t-182.5 -148.5t-246.5 -51.5q-135 0 -244.5 50 t-174 143.5t-64.5 211.5zM315 399q0 -120 96 -198.5t240 -75.5q148 3 241 80.5t93 195.5q0 121 -94 203.5t-242 79.5q-143 -3 -238.5 -87t-95.5 -198zM444 1065q0 -105 76 -170.5t191 -65.5q121 0 198.5 67.5t77.5 172.5q0 106 -74 174t-194 68q-122 0 -198.5 -69 t-76.5 -177z" />
<glyph unicode="9" horiz-adv-x="1296" d="M188 63l70 123q137 -57 281 -57q101 0 189 37.5t150 98t110 141t75.5 161.5t40.5 164q-63 -106 -187.5 -168.5t-259.5 -62.5q-188 0 -312 117t-124 311q0 148 75 269.5t201.5 189t276.5 67.5q222 0 355 -157.5t133 -413.5q0 -80 -13.5 -165t-42 -173.5t-70 -170 t-101.5 -154t-132 -125.5t-165.5 -84t-198.5 -31q-178 0 -351 83zM393 928q0 -120 79.5 -201.5t223.5 -81.5q160 0 272.5 106.5t112.5 249.5q0 131 -81.5 216.5t-219.5 85.5q-161 0 -274 -113.5t-113 -261.5z" />
<glyph unicode=":" horiz-adv-x="516" d="M113 84q0 51 40 89t91 38q41 0 67.5 -28t26.5 -68q0 -51 -40 -88t-93 -37q-41 0 -66.5 27t-25.5 67zM244 829q0 51 40 89t91 38q41 0 67.5 -27t26.5 -67q0 -52 -40 -89.5t-93 -37.5q-39 0 -65.5 27.5t-26.5 66.5z" />
<glyph unicode=";" horiz-adv-x="559" d="M76 -201q17 10 42.5 29.5t56 48.5t52 65t21.5 68l-3 -2l-7.5 -5t-10 -6t-14.5 -5t-18 -2q-35 0 -53.5 22.5t-18.5 55.5q0 55 40.5 91t92.5 36q53 0 83 -43t30 -103q0 -101 -78.5 -182.5t-188.5 -128.5zM262 829q0 52 39.5 89.5t91.5 37.5q41 0 67.5 -27t26.5 -67 q0 -52 -40 -89.5t-93 -37.5q-39 0 -65.5 27.5t-26.5 66.5z" />
<glyph unicode="&#x3c;" horiz-adv-x="901" d="M182 637l19 102l651 303l-23 -135l-487 -219l414 -221l-27 -137z" />
<glyph unicode="=" horiz-adv-x="1040" d="M193 453l22 120h705l-21 -120h-706zM250 776l20 119h707l-21 -119h-706z" />
<glyph unicode="&#x3e;" horiz-adv-x="901" d="M184 330l25 139l489 221l-409 221l22 131l547 -303l-16 -102z" />
<glyph unicode="?" horiz-adv-x="1024" d="M293 1370q76 50 181.5 81.5t199.5 31.5q161 0 268 -81t107 -226q0 -74 -24.5 -134.5t-65 -102t-89.5 -76.5t-100.5 -66.5t-95.5 -64t-76 -76.5t-41 -97l-25 -141h-139l25 151q11 64 43 116.5t73.5 89t89.5 69t93.5 62.5t83 63t60 78t22.5 100q0 92 -67.5 142t-168.5 50 q-67 0 -152.5 -26t-146.5 -60zM295 76q0 53 39 90t94 37q43 0 68.5 -25.5t25.5 -66.5q0 -52 -38.5 -89.5t-92.5 -37.5q-44 0 -70 26t-26 66z" />
<glyph unicode="@" horiz-adv-x="1927" d="M174 492q0 134 38 259.5t105 228t160.5 188t203 144t233.5 90.5t251 32q150 0 279 -44.5t227.5 -128t154.5 -214t56 -293.5q0 -115 -28 -219t-81 -187.5t-138.5 -132.5t-192.5 -49q-189 0 -207 160q-53 -76 -141 -118t-187 -42q-120 0 -195 59.5t-75 173.5 q0 65 26.5 116.5t67 81.5t94 50t101 27.5t94.5 7.5q98 0 227 -37l15 86q19 111 -28.5 153t-156.5 42q-117 0 -278 -39l-13 92q64 19 159.5 33t170.5 14q161 0 229.5 -74t43.5 -215l-60 -334q-10 -57 17.5 -95t101.5 -38q77 0 138 43t98 113t56 153t19 169q0 113 -33 208 t-90.5 160.5t-134.5 111t-164.5 66.5t-181.5 21q-224 0 -422 -113t-317 -305t-119 -412q0 -170 72.5 -306.5t208.5 -215t311 -78.5q136 0 293 58l24 -109q-183 -70 -344 -70q-151 0 -280 55t-218 152t-139.5 231.5t-50.5 289.5zM754 416q0 -71 49.5 -108.5t122.5 -37.5 q99 0 186 60.5t107 148.5l14 80q-24 10 -88 22.5t-127 12.5q-49 0 -93.5 -9.5t-84 -29.5t-63 -55.5t-23.5 -83.5z" />
<glyph unicode="A" d="M-14 0l798 1454h177l286 -1454h-170l-80 391h-608l-213 -391h-190zM459 530h520l-131 754z" />
<glyph unicode="B" horiz-adv-x="1390" d="M145 0l256 1434h570q154 0 255 -97t101 -245q0 -76 -22 -139t-60.5 -105.5t-82 -70.5t-93.5 -44q92 -30 156.5 -110t64.5 -185q0 -128 -67 -229t-179.5 -155t-248.5 -54h-650zM346 158h477q108 0 200.5 80t92.5 194q0 94 -59 155.5t-148 61.5h-475zM461 799h442 q105 0 176.5 74t71.5 186q0 90 -59.5 153.5t-149.5 63.5h-395z" />
<glyph unicode="C" horiz-adv-x="1394" d="M184 645q0 164 66 312.5t181 258t281 174t355 64.5q246 0 426 -123l-94 -127q-161 96 -350 96q-125 0 -235.5 -36t-192 -99t-140.5 -146t-89 -178.5t-30 -195.5q0 -141 58 -255.5t173 -184.5t269 -70q177 0 361 96l59 -131q-212 -120 -438 -120q-183 0 -333 82.5 t-238.5 235.5t-88.5 347z" />
<glyph unicode="D" horiz-adv-x="1488" d="M145 0l256 1434h443q141 0 268.5 -41.5t210.5 -132.5q128 -142 131 -402q0 -116 -22.5 -224t-70.5 -211.5t-132 -190.5t-197 -144q-175 -88 -381 -88h-506zM346 158h272q219 0 375 104q73 47 129.5 115.5t90 146t50.5 158t17 158.5q0 198 -88 299q-121 137 -399 137h-246 z" />
<glyph unicode="E" horiz-adv-x="1314" d="M145 0l256 1434h985l-26 -160h-815l-88 -498h698l-29 -155h-698l-80 -461h840l-29 -160h-1014z" />
<glyph unicode="F" horiz-adv-x="1249" d="M145 0l256 1434h985l-26 -160h-815l-90 -510h698l-29 -156h-698l-109 -608h-172z" />
<glyph unicode="G" horiz-adv-x="1583" d="M184 645q0 164 66 312.5t181 258t281 174t355 64.5q293 0 483 -127l-88 -125q-78 48 -196 73t-217 25q-125 0 -235.5 -36t-192 -99t-140.5 -146t-89 -178.5t-30 -195.5q0 -141 58 -255.5t173 -184.5t269 -70q242 0 441 141l55 310h-397l24 139h555l-92 -506 q-244 -239 -604 -239q-183 0 -333 82.5t-238.5 235.5t-88.5 347z" />
<glyph unicode="H" horiz-adv-x="1531" d="M145 0l256 1434h172l-114 -635h796l111 635h172l-256 -1434h-172l115 633h-795l-113 -633h-172z" />
<glyph unicode="I" horiz-adv-x="565" d="M145 0l256 1434h172l-256 -1434h-172z" />
<glyph unicode="J" horiz-adv-x="598" d="M-78 -172q117 70 181.5 144.5t91.5 164.5q13 44 206 1133l-135 35l25 129h311l-215 -1229q-17 -87 -53 -166q-21 -44 -50 -84.5t-62 -71.5t-63.5 -56t-65.5 -45t-57 -32t-48 -24t-29 -13z" />
<glyph unicode="K" horiz-adv-x="1282" d="M143 0l260 1434h172l-90 -504l-55 -268l238 235l561 537h205l-664 -631l447 -803h-189l-375 694l-254 -241l-82 -453h-174z" />
<glyph unicode="L" horiz-adv-x="1183" d="M145 0l256 1434h172l-225 -1268h776l-30 -166h-949z" />
<glyph unicode="M" horiz-adv-x="1869" d="M145 0l252 1434h234l301 -1145h4l704 1145h238l-252 -1434h-170l207 1178h-4l-684 -1094h-152l-297 1096h-2l-207 -1180h-172z" />
<glyph unicode="N" horiz-adv-x="1517" d="M145 0l256 1434h172l459 -920l111 -248h4l39 252l162 916h178l-258 -1434h-174l-459 944l-109 238h-6l-35 -240l-166 -942h-174z" />
<glyph unicode="O" horiz-adv-x="1701" d="M182 639q0 159 64 307.5t173.5 260.5t266.5 179.5t332 67.5q142 0 265.5 -53t207.5 -142.5t132 -210t48 -253.5q0 -159 -62 -307.5t-169.5 -260.5t-262.5 -179.5t-331 -67.5q-190 0 -343 90t-237 240.5t-84 328.5zM360 643q0 -140 60 -255.5t174.5 -185t261.5 -69.5 q137 0 257.5 55.5t202.5 147t129.5 210.5t47.5 245q0 139 -60 254t-174.5 185t-261.5 70q-110 0 -210 -35.5t-176.5 -98.5t-133.5 -145.5t-87 -179.5t-30 -198z" />
<glyph unicode="P" d="M145 0l256 1434h611q104 0 187 -55.5t127 -143t44 -186.5q0 -96 -36 -183.5t-100 -154.5t-158.5 -106.5t-205.5 -39.5h-450l-103 -565h-172zM449 721h444q119 0 213 99.5t94 215.5q0 96 -61.5 169t-161.5 73h-432z" />
<glyph unicode="Q" horiz-adv-x="1705" d="M182 639q0 159 64.5 307.5t174 260.5t266.5 179.5t331 67.5q143 0 266.5 -53t207.5 -142.5t131.5 -210t47.5 -253.5q0 -259 -155.5 -470t-411.5 -292v-6q112 -63 420 -144l-88 -147q-94 21 -245 91t-233 126q-27 20 -43 23.5t-71 3.5q-138 1 -260.5 52t-210.5 138.5 t-139.5 209.5t-51.5 259zM360 643q0 -140 60.5 -255.5t175.5 -185t262 -69.5q109 0 209 35.5t177 99t134 146t87 179.5t30 198q0 138 -60.5 253.5t-175 185.5t-260.5 70q-137 0 -257.5 -56t-203 -147.5t-130.5 -210t-48 -243.5z" />
<glyph unicode="R" horiz-adv-x="1390" d="M145 0l256 1434h623q155 0 261 -103.5t106 -251.5q0 -181 -105 -295t-276 -157l247 -627h-186l-229 606h-418l-107 -606h-172zM453 766h465q117 0 209 85t92 206q0 92 -58 155.5t-151 63.5h-463z" />
<glyph unicode="S" horiz-adv-x="1271" d="M90 152l74 129q229 -150 467 -150q167 0 264.5 73.5t97.5 182.5q0 53 -25.5 94.5t-68 69.5t-98.5 51.5t-117.5 44.5t-122.5 44t-117 54.5t-98.5 71t-68 99t-25.5 133.5q0 187 147.5 296t388.5 109q260 0 474 -133l-76 -125q-205 107 -391 107q-174 0 -270.5 -71.5 t-96.5 -176.5q0 -51 25.5 -91.5t68 -68.5t98.5 -51t117 -44.5t122.5 -44.5t117.5 -55.5t98.5 -72.5t68 -100t25.5 -134q0 -194 -150 -303.5t-386 -109.5q-291 0 -543 172z" />
<glyph unicode="T" horiz-adv-x="1236" d="M213 1274l31 160h1153l-31 -160h-489l-230 -1274h-172l230 1274h-492z" />
<glyph unicode="U" horiz-adv-x="1488" d="M217 422q0 35 6 72l166 940h168l-166 -945q-4 -23 -4 -53q0 -121 92.5 -199.5t237.5 -78.5q162 0 293.5 97t156.5 234l172 945h166l-168 -940q-39 -215 -213.5 -354.5t-416.5 -139.5q-223 0 -356.5 121t-133.5 301z" />
<glyph unicode="V" horiz-adv-x="1308" d="M225 1434h178l224 -1221h2l661 1221h187l-779 -1434h-192z" />
<glyph unicode="W" horiz-adv-x="1953" d="M229 1434h185l131 -1172h4l538 1172h175l124 -1172h5l534 1172h195l-693 -1434h-172l-120 1149l-545 -1149h-170z" />
<glyph unicode="X" horiz-adv-x="1347" d="M-20 0l667 739l-391 695h203l313 -572l500 572h231l-645 -717l402 -717h-201l-328 594l-518 -594h-233z" />
<glyph unicode="Y" horiz-adv-x="1241" d="M209 1434h184l287 -682h6l526 682h215l-671 -850l-105 -584h-178l102 584z" />
<glyph unicode="Z" horiz-adv-x="1273" d="M29 0l20 117l1077 1163l-2 4l-399 -2h-451l29 152h1075l-22 -129l-1063 -1158l2 -2l373 7h493l-28 -152h-1104z" />
<glyph unicode="[" horiz-adv-x="608" d="M51 -362l328 1826h364l-26 -133h-209l-279 -1552h209l-26 -141h-361z" />
<glyph unicode="\" horiz-adv-x="1003" d="M291 1499h143l428 -1571h-147z" />
<glyph unicode="]" horiz-adv-x="610" d="M-39 -352l25 131h207l280 1552h-211l25 133h366l-331 -1816h-361z" />
<glyph unicode="_" horiz-adv-x="1474" d="M197 -274l22 118h875l-23 -118h-874z" />
<glyph unicode="`" horiz-adv-x="552" d="M559 1434l154 75l86 -303h-94z" />
<glyph unicode="a" horiz-adv-x="1341" d="M137 473q0 161 76 300.5t215.5 225.5t310.5 86q142 0 239.5 -60.5t149.5 -166.5l54 207h145l-153 -815l-29 -250h-137v158q-145 -178 -400 -178q-114 0 -205.5 41t-148.5 110.5t-87 157t-30 184.5zM317 483q0 -147 88.5 -249.5t235.5 -102.5q114 0 214.5 63.5t160 171 t59.5 230.5q0 153 -90.5 246.5t-234.5 93.5q-118 0 -218.5 -63.5t-157.5 -167.5t-57 -222z" />
<glyph unicode="b" horiz-adv-x="1347" d="M106 0l277 1499h166l-113 -594q68 91 172 135.5t215 44.5q113 0 204.5 -41.5t149 -111.5t88.5 -159t31 -187q0 -118 -43.5 -227.5t-121 -193.5t-192 -134.5t-247.5 -50.5q-137 0 -238 61t-147 170l-53 -211h-148zM354 473q0 -151 91.5 -246.5t238.5 -95.5 q179 0 305.5 134t126.5 319q0 156 -94 254t-234 98q-113 0 -213 -63t-160.5 -170.5t-60.5 -229.5z" />
<glyph unicode="c" horiz-adv-x="1087" d="M137 485q0 165 90 303.5t241 217.5t327 79q191 0 335 -108l-88 -119q-114 78 -258 78q-129 0 -239 -63t-173 -166.5t-63 -221.5q0 -154 98.5 -254t247.5 -100q132 0 258 66l62 -125q-140 -92 -352 -92q-111 0 -204 41.5t-154 112t-94.5 161.5t-33.5 190z" />
<glyph unicode="d" horiz-adv-x="1361" d="M139 473q0 119 43.5 229.5t119.5 195.5t189.5 136t243.5 51q72 0 134.5 -17t101 -39t72 -53.5t47.5 -51t26 -41.5l109 616h172l-230 -1247l-28 -252h-138l5 170q-73 -93 -183.5 -141.5t-224.5 -48.5q-204 0 -331.5 140.5t-127.5 352.5zM319 479q0 -151 89.5 -249.5 t236.5 -98.5q120 0 220.5 68.5t156 177.5t55.5 229q0 148 -85 239t-232 91q-126 0 -228.5 -66.5t-157.5 -170.5t-55 -220z" />
<glyph unicode="e" horiz-adv-x="1167" d="M137 469q0 123 45 235.5t123.5 196.5t192.5 134t245 50q110 0 198 -39t143 -120.5t55 -194.5q0 -79 -27.5 -141.5t-73.5 -102.5t-109.5 -66t-131.5 -37t-144 -11q-198 0 -346 45q2 -125 100.5 -211t260.5 -86q172 0 303 78l57 -121q-176 -98 -369 -98q-238 0 -380 137.5 t-142 351.5zM309 555q161 -41 326 -41q47 0 90.5 5t90 19.5t80 38t55.5 63t22 91.5q0 93 -66 143t-170 50q-88 0 -164 -30t-129.5 -81.5t-88 -117.5t-46.5 -140z" />
<glyph unicode="f" horiz-adv-x="702" d="M29 -227q62 14 86 59t41 145l174 959h-146l17 104l153 25l25 139q32 174 115.5 253t253.5 79q26 0 67 -8t69 -16l27 -9l-34 -123q-1 0 -19 3.5t-35 6.5t-42 6t-44 3q-87 0 -128.5 -46t-57.5 -139l-27 -149h262l-22 -129h-260l-168 -922q-32 -181 -90.5 -264t-190.5 -108z " />
<glyph unicode="g" horiz-adv-x="1290" d="M72 -244l73 129q67 -40 161 -62t183 -22q175 0 290.5 92.5t148.5 249.5l16 84q-118 -157 -369 -157q-118 0 -216.5 54t-160 160t-61.5 244q0 115 43 217.5t118.5 177t183.5 118.5t231 44q124 0 221 -54.5t139 -156.5l53 191h142l-172 -899q-97 -514 -613 -514 q-111 0 -220 26.5t-191 77.5zM305 532q0 -133 83.5 -224t223.5 -91q165 0 286.5 122.5t121.5 287.5q0 133 -81 221t-224 88q-168 0 -289 -120t-121 -284z" />
<glyph unicode="h" horiz-adv-x="1275" d="M109 0l286 1499h158l-115 -606q126 192 385 192q199 0 299 -117q69 -81 70 -217q0 -61 -14 -133l-123 -618h-170l125 627q9 45 9 83q0 84 -41 138q-60 80 -192 80q-152 0 -257 -98t-130 -230l-118 -600h-172z" />
<glyph unicode="i" horiz-adv-x="528" d="M139 0l166 920l-112 32l22 113h291l-193 -1065h-174zM330 1333q0 51 41 90t94 39q41 0 69.5 -28t28.5 -68q0 -52 -42 -89.5t-97 -37.5q-41 0 -67.5 27.5t-26.5 66.5z" />
<glyph unicode="j" horiz-adv-x="530" d="M-53 -236q19 8 44 26t58.5 50t61 82.5t36.5 108.5l156 889l-108 30l20 115h291l-174 -995q-58 -326 -350 -418zM324 1323q0 52 41 91.5t94 39.5q41 0 69.5 -29t28.5 -69q0 -52 -42.5 -89.5t-98.5 -37.5q-39 0 -65.5 27.5t-26.5 66.5z" />
<glyph unicode="k" horiz-adv-x="1056" d="M109 0l268 1499h170l-121 -672l-66 -321l312 305l266 254h215l-537 -500l355 -565h-193l-278 449l-170 -150l-51 -299h-170z" />
<glyph unicode="l" horiz-adv-x="534" d="M145 178l238 1321h170l-234 -1300q-6 -34 2 -43t31 -9l76 3l-22 -130q-80 -20 -130 -20q-82 0 -114 46q-22 31 -22 82q0 23 5 50z" />
<glyph unicode="m" horiz-adv-x="1873" d="M115 0l155 829l23 236h145v-143q63 88 155.5 125.5t188.5 37.5q232 0 281 -198q55 96 160 147t229 51q182 -1 276 -113q68 -81 68 -208q0 -49 -10 -105l-117 -659h-174l121 682q5 23 5 45q-1 21 -5 43q-10 44 -30.5 79t-67 57t-109.5 22q-124 0 -211.5 -77.5 t-110.5 -207.5l-114 -643h-174l123 688q5 28 5 52q1 70 -39 120q-54 68 -165 68q-123 0 -212.5 -82.5t-111.5 -206.5l-110 -639h-174z" />
<glyph unicode="n" horiz-adv-x="1261" d="M104 0l162 836l23 229h145v-172q126 192 385 192q166 0 267.5 -84.5t101.5 -244.5q0 -63 -14 -138l-123 -618h-170l125 627q10 52 10 86q0 102 -62 158.5t-174 56.5q-78 0 -146.5 -29t-116 -76.5t-79 -104.5t-43.5 -118l-119 -600h-172z" />
<glyph unicode="o" d="M135 471q0 168 87.5 310t233.5 223t314 81q218 0 359 -139t141 -350q0 -169 -86.5 -311t-234.5 -223.5t-322 -81.5q-210 0 -351 141.5t-141 349.5zM307 475q0 -155 96 -249.5t244 -94.5q112 0 216 61.5t169.5 168.5t65.5 229q0 147 -90 246.5t-248 99.5q-116 0 -221 -64 t-168.5 -171t-63.5 -226z" />
<glyph unicode="p" horiz-adv-x="1343" d="M39 -348l225 1175l25 238h145l-2 -150q5 7 15 18.5t46.5 40.5t78.5 51.5t112 41t147 18.5q136 0 242.5 -69.5t161.5 -181t55 -242.5q0 -167 -76 -306.5t-215 -222.5t-311 -83q-72 0 -134 16t-101.5 39t-70 51.5t-45 51t-20.5 40.5l-106 -526h-172zM348 459 q0 -145 87 -236.5t237 -91.5q125 0 226.5 64.5t156.5 169t55 225.5q0 149 -95.5 247.5t-230.5 98.5q-124 0 -225 -66.5t-156 -175.5t-55 -235z" />
<glyph unicode="q" horiz-adv-x="1341" d="M137 473q0 161 76 300.5t215.5 225.5t310.5 86q134 0 232 -59.5t149 -153.5l51 193h146l-264 -1413h-166l98 495q-146 -167 -381 -167q-113 0 -203.5 41t-147 110.5t-86.5 157t-30 184.5zM317 483q0 -147 88.5 -249.5t235.5 -102.5q115 0 216 63.5t161.5 171t60.5 230.5 q0 152 -92.5 246t-236.5 94q-118 0 -218.5 -63.5t-157.5 -167.5t-57 -222z" />
<glyph unicode="r" horiz-adv-x="731" d="M104 0l160 836l21 223h135l-4 -195q55 96 165.5 148.5t221.5 52.5l-37 -182q-58 0 -114 -13t-110 -41t-92 -79t-51 -119l-120 -631h-175z" />
<glyph unicode="s" horiz-adv-x="997" d="M66 113l67 118q172 -108 338 -108q123 0 187.5 51.5t64.5 120.5q0 43 -29.5 76t-76.5 55t-103.5 42t-113.5 45t-104 56.5t-76.5 83.5t-29.5 119q0 144 117 228.5t301 84.5q201 0 369 -104l-72 -117q-147 78 -287 78q-130 0 -195 -50.5t-65 -119.5q0 -43 29.5 -75.5 t76.5 -53t103.5 -40t113.5 -44t104 -56t76.5 -85t29.5 -123.5q0 -146 -110.5 -230.5t-297.5 -84.5q-231 0 -417 133z" />
<glyph unicode="t" horiz-adv-x="755" d="M176 936l21 104l151 23l88 309h137l-57 -307h301l-22 -129h-301l-103 -588q-8 -50 -8 -74q0 -133 111 -133q44 0 110 6.5t84 10.5l10 -119q-151 -39 -235 -39q-252 0 -252 252q0 39 12 125l101 559h-148z" />
<glyph unicode="u" horiz-adv-x="1255" d="M164 305q0 86 14 152l121 608h170l-121 -616q-12 -52 -12 -119q0 -96 57.5 -144.5t188.5 -48.5q129 0 234.5 95t135.5 229l117 604h174l-166 -834l-24 -231h-140v170q-64 -93 -167.5 -141.5t-219.5 -48.5q-171 0 -266.5 82t-95.5 243z" />
<glyph unicode="v" horiz-adv-x="1050" d="M166 1065h174l152 -897h6l467 897h186l-571 -1065h-215z" />
<glyph unicode="w" horiz-adv-x="1714" d="M166 1065h176l147 -866h3l395 866h186l84 -866h2l457 866h201l-584 -1065h-197l-92 848h-2l-393 -848h-180z" />
<glyph unicode="x" horiz-adv-x="1103" d="M-14 0l522 553l-320 512h183l243 -399l367 399h209l-498 -533l328 -532h-182l-256 422l-389 -422h-207z" />
<glyph unicode="y" horiz-adv-x="1101" d="M25 -307l47 145q82 -28 141 -28q123 0 217 184l-268 1071h178l197 -897h6l463 897h202l-610 -1108q-23 -42 -36.5 -65.5t-38.5 -61t-44 -58.5t-48.5 -47t-59 -40t-68.5 -23.5t-82 -9.5q-106 0 -196 41z" />
<glyph unicode="z" horiz-adv-x="1077" d="M39 0l18 117l836 807v4l-279 -4h-415l24 141h895l-20 -123l-809 -805v-6l286 6h396l-29 -137h-903z" />
<glyph unicode="{" horiz-adv-x="657" d="M115 498l18 114q139 4 160 123l78 439q25 141 101 214.5t237 73.5h79l-20 -129h-82q-82 0 -124 -40t-56 -119q-30 -168 -78 -457q-11 -68 -43.5 -108.5t-97.5 -53.5q56 -13 74 -48.5t12 -96.5q-5 -44 -43 -245t-43 -245q-9 -72 20.5 -106.5t104.5 -34.5h80l-21 -129h-82 q-84 0 -138 20.5t-78 58.5t-29.5 90.5t8.5 117.5l77 438q12 70 -21.5 95.5t-92.5 27.5z" />
<glyph unicode="|" horiz-adv-x="489" d="M63 -299l345 1927h151l-344 -1927h-152z" />
<glyph unicode="}" horiz-adv-x="657" d="M-39 -350l23 129h82q80 0 123 40t57 118l76 458q13 67 45.5 107t95.5 53q-99 23 -86 145q5 46 44 247t44 243q9 72 -20.5 107.5t-104.5 35.5h-82l23 129h81q161 0 211.5 -73.5t26.5 -214.5l-78 -439q-12 -69 21 -95t94 -28l-21 -114q-39 -1 -67.5 -9t-56 -36.5 t-35.5 -77.5l-76 -438q-13 -69 -35 -118.5t-60.5 -89t-99 -59.5t-143.5 -20h-82z" />
<glyph unicode="&#xa1;" horiz-adv-x="530" d="M113 0l215 1018h133l-146 -1018h-202zM336 1323q0 54 37.5 90.5t93.5 36.5q42 0 69 -26t27 -66q0 -53 -40 -90t-95 -37q-41 0 -66.5 26t-25.5 66z" />
<glyph unicode="&#xa2;" horiz-adv-x="1206" d="M178 487q0 157 84 291t224.5 215t306.5 92l30 175h111l-33 -179q148 -14 270 -104l-88 -119q-114 78 -256 78q-129 0 -239.5 -63t-174 -166.5t-63.5 -221.5q0 -154 98.5 -254t249.5 -100q130 0 256 66l62 -125q-1 0 -10 -5.5t-15 -8.5t-19 -10t-24.5 -11.5t-29 -11.5 t-34 -12t-38.5 -11t-43.5 -10t-47.5 -7.5t-53 -4.5l-32 -177h-105l31 183q-189 23 -303.5 167t-114.5 334z" />
<glyph unicode="&#xa3;" horiz-adv-x="1175" d="M80 0l26 141q5 2 13.5 7t30.5 22.5t40.5 38.5t37 57.5t26.5 77.5l51 289h-110l18 100h111l49 281q33 191 163 315.5t318 124.5q111 0 200.5 -45t137.5 -117l-105 -102q-44 51 -110 74.5t-133 23.5q-126 0 -204 -78.5t-97 -195.5l-49 -281h485l-16 -100h-488l-49 -281 q-9 -50 -30 -91.5t-46 -66t-40.5 -36.5t-26.5 -17h743l-22 -141h-924z" />
<glyph unicode="&#xa5;" horiz-adv-x="1398" d="M289 1434h182l285 -682h8l528 682h213l-671 -850l-11 -54h264l-20 -96h-260l-14 -90h260l-17 -96h-262l-45 -248h-176l43 248h-285l19 96h286l13 90h-285l18 96h285l8 54z" />
<glyph unicode="&#xa7;" horiz-adv-x="1257" d="M104 -135l111 108q53 -49 130 -86.5t153 -52.5q32 -7 74 -10.5t94 0t94 16t71 43.5t29 76q0 37 -24.5 73t-71 68.5t-88 56.5t-99.5 54q-13 7 -20 10q-63 31 -102.5 52.5t-97.5 61t-92 75t-59.5 85.5t-25.5 103q0 67 34 118.5t90 80t119.5 42t129.5 11.5 q-219 127 -219 289q0 62 26 112t70 81.5t100 53t117.5 29.5t120.5 6.5t111 -12.5q97 -20 189 -68t159 -112l-113 -109q-53 48 -127 85t-147 52q-42 9 -95.5 10.5t-114 -7t-101 -42.5t-40.5 -90q0 -18 5 -35t18 -34t24 -30t35 -30.5t37.5 -27.5t45 -28t45 -25.5t49.5 -26.5 t47 -25q155 -83 208 -120q167 -116 168 -250q0 -67 -35 -119.5t-92 -83t-121.5 -45.5t-131.5 -15q43 -27 75.5 -51t71 -61t59.5 -81t21 -91q0 -75 -39.5 -132t-101 -88t-137.5 -47t-149 -15t-136 14q-101 23 -195 72.5t-156 111.5zM352 592q0 -59 44 -106t110.5 -73.5 t133 -40.5t122.5 -14q46 0 86 7.5t75 23.5t55.5 46t20.5 71q0 58 -44.5 104.5t-112 73t-135.5 40t-125 13.5q-96 0 -163 -34t-67 -111z" />
<glyph unicode="&#xa8;" horiz-adv-x="911" d="M492 1335q1 46 36 77.5t78 31.5q48 0 73.5 -23.5t25.5 -64.5q0 -50 -32.5 -81.5t-86.5 -31.5q-44 0 -70 26t-24 66zM905 1335q1 46 36.5 77.5t78.5 31.5q48 0 73 -23.5t25 -64.5q0 -50 -33 -81.5t-88 -31.5q-42 0 -68 26t-24 66z" />
<glyph unicode="&#xa9;" horiz-adv-x="1730" d="M213 717q0 193 98 358.5t265.5 262t363.5 96.5q148 0 283 -57t232.5 -153.5t155.5 -229t58 -277.5t-58 -278.5t-156 -230.5t-233 -154.5t-282 -57.5q-146 0 -280.5 57.5t-232.5 154.5t-156 230.5t-58 278.5zM289 717q0 -174 87.5 -322.5t237.5 -235.5t326 -87t326.5 87 t238.5 235.5t88 322.5q0 172 -88.5 320t-239 234.5t-325.5 86.5t-325 -86.5t-238 -234.5t-88 -320zM582 713q0 153 110 260.5t264 107.5q135 0 244 -92l-65 -90q-76 57 -177 57t-174 -72.5t-73 -172.5q0 -99 72.5 -170.5t174.5 -71.5q99 0 177 57l63 -90q-98 -92 -242 -92 q-157 0 -265.5 107.5t-108.5 261.5z" />
<glyph unicode="&#xaa;" horiz-adv-x="1003" d="M178 514l21 104h714l-18 -104h-717zM274 973q9 77 63 127.5t124.5 69.5t156.5 18q37 0 83 -8t73 -16l27 -7l10 51q17 92 -17.5 137.5t-152.5 45.5q-61 0 -190 -33l-7 96q137 45 244 45q293 0 244 -260l-64 -369q-3 -17 6.5 -23.5t26.5 -6.5q11 0 47 6l-16 -92 q-41 -23 -92 -23q-38 0 -62 32.5t-20 49.5q1 13 3 25.5t3 17.5q-35 -55 -107 -91t-159 -36q-104 0 -172 65t-52 179zM385 952q0 -56 42 -88.5t105 -32.5q86 0 156.5 52.5t87.5 134.5l10 57q-109 31 -172 31q-101 0 -165 -36t-64 -118z" />
<glyph unicode="&#xab;" horiz-adv-x="1191" d="M141 516l6 33l506 471l72 -88l-387 -400l244 -401l-99 -86zM606 516l6 33l506 471l72 -88l-387 -400l244 -401l-101 -86z" />
<glyph unicode="&#xad;" horiz-adv-x="1026" d="M201 612l20 119h737l-22 -119h-735z" />
<glyph unicode="&#xae;" horiz-adv-x="1253" d="M281 971q0 126 62.5 232.5t170 168.5t234.5 62q193 0 328.5 -135.5t135.5 -327.5q0 -92 -37 -176.5t-99 -146t-148 -98t-180 -36.5q-193 0 -330 134t-137 323zM348 971q0 -163 117 -277t283 -114q106 0 197.5 51t146.5 141.5t55 198.5q0 163 -117.5 280t-281.5 117 q-165 0 -282.5 -117t-117.5 -280zM575 721v504h222q61 0 104 -44t43 -106q0 -46 -29.5 -84.5t-74.5 -50.5l129 -219h-76l-125 211h-127v-211h-66zM641 995h156q32 0 57 24t25 56q0 35 -24.5 60.5t-57.5 25.5h-156v-166z" />
<glyph unicode="&#xaf;" horiz-adv-x="960" d="M412 1239l22 107h615l-21 -107h-616z" />
<glyph unicode="&#xb0;" horiz-adv-x="624" d="M285 1239q0 88 66.5 154.5t158.5 66.5q85 0 132.5 -47.5t47.5 -120.5q0 -90 -64 -155.5t-157 -65.5q-87 0 -135.5 47t-48.5 121zM360 1239q0 -42 29.5 -70t79.5 -28q63 0 104 44t41 107q0 44 -28 71.5t-78 27.5q-62 0 -105 -46t-43 -106z" />
<glyph unicode="&#xb1;" horiz-adv-x="1036" d="M137 143l21 115h719l-21 -115h-719zM229 684l21 113h303l49 278h117l-49 -278h301l-21 -113h-301l-49 -278h-115l47 278h-303z" />
<glyph unicode="&#xb4;" horiz-adv-x="552" d="M725 1196l184 334l138 -84l-220 -250h-102z" />
<glyph unicode="&#xb6;" horiz-adv-x="1148" d="M231 942q0 118 45 215t116 155.5t153 90t162 31.5h423l-282 -1608h-127l256 1481h-137l-260 -1481h-125q8 45 135 770h-55q-100 1 -170 50t-102 125t-32 171z" />
<glyph unicode="&#xb7;" horiz-adv-x="550" d="M190 594q0 69 49 112.5t115 43.5q52 0 85.5 -32.5t33.5 -82.5q0 -69 -50 -112.5t-118 -43.5q-49 0 -82 33.5t-33 81.5z" />
<glyph unicode="&#xb8;" horiz-adv-x="667" d="M115 -377l41 74q61 -24 104 -21q46 0 78.5 22.5t32.5 63.5q0 28 -21 47t-61 19q-21 0 -37 -4l-29 39l90 151h56l-47 -129q12 2 24 2q70 0 106.5 -30.5t36.5 -85.5q0 -91 -70 -141t-163 -50q-77 0 -141 43z" />
<glyph unicode="&#xba;" horiz-adv-x="1144" d="M166 406l31 106h784l-29 -106h-786zM313 995q0 83 35.5 162.5t96 140.5t146.5 98.5t181 37.5q162 0 263.5 -96t101.5 -246q0 -83 -35.5 -162.5t-96 -140.5t-146.5 -98.5t-181 -37.5q-162 0 -263.5 96t-101.5 246zM457 1001q0 -100 62.5 -161.5t164.5 -61.5q129 0 219 96 t90 216q0 97 -62 159t-163 62q-86 0 -159 -47t-112.5 -118t-39.5 -145z" />
<glyph unicode="&#xbb;" horiz-adv-x="1191" d="M90 131l385 401l-246 400l101 88l342 -471l-6 -33l-508 -471zM555 131l385 401l-246 400l101 88l342 -471l-7 -33l-505 -471z" />
<glyph unicode="&#xbf;" horiz-adv-x="1026" d="M129 260q0 74 24.5 134t65 101.5t90 76.5t100.5 66.5t95 64t77 77t42 97.5l22 141h141l-26 -154q-11 -64 -43 -116.5t-73 -88.5t-89 -68t-93.5 -62t-82.5 -63t-59.5 -78.5t-22.5 -100.5q0 -88 67.5 -139.5t167.5 -51.5q68 0 152.5 25.5t144.5 60.5l56 -116 q-74 -50 -180.5 -82.5t-200.5 -32.5q-161 0 -268 82t-107 227zM657 1323q0 54 37.5 90.5t91.5 36.5q44 0 70.5 -25.5t26.5 -64.5q0 -55 -39 -92t-94 -37q-41 0 -67 26t-26 66z" />
<glyph unicode="&#xc0;" d="M-14 0l798 1454h177l286 -1454h-170l-80 391h-608l-213 -391h-190zM459 530h520l-131 754zM684 1753l156 78l84 -305h-93z" />
<glyph unicode="&#xc1;" d="M-14 0l798 1454h177l286 -1454h-170l-80 391h-608l-213 -391h-190zM459 530h520l-131 754zM852 1526l184 336l138 -86l-220 -250h-102z" />
<glyph unicode="&#xc2;" d="M-14 0l798 1454h177l286 -1454h-170l-80 391h-608l-213 -391h-190zM459 530h520l-131 754zM596 1526l266 248h121l172 -248h-113l-129 143l-190 -143h-127z" />
<glyph unicode="&#xc3;" d="M-14 0l798 1454h177l286 -1454h-170l-80 391h-608l-213 -391h-190zM459 530h520l-131 754zM608 1583q45 61 107 100t123 39q41 0 113 -40t118 -40q72 0 129 66l45 -39q-45 -63 -105.5 -102t-121.5 -39q-42 0 -115 40t-119 40q-27 0 -53.5 -12t-40 -22.5t-35.5 -31.5z" />
<glyph unicode="&#xc4;" d="M-14 0l798 1454h177l286 -1454h-170l-80 391h-608l-213 -391h-190zM459 530h520l-131 754zM588 1620q1 46 35.5 77.5t78.5 31.5q48 0 73.5 -24t25.5 -65q-2 -50 -35 -82t-86 -32q-44 0 -69 26t-23 68zM1001 1620q1 46 36 77.5t79 31.5q46 0 72 -24t26 -65 q-2 -50 -34.5 -82t-85.5 -32q-44 0 -69.5 26t-23.5 68z" />
<glyph unicode="&#xc5;" d="M-14 0l798 1454h177l286 -1454h-170l-80 391h-608l-213 -391h-190zM459 530h520l-131 754zM743 1673q0 78 59 135.5t140 57.5q74 0 119 -41.5t45 -106.5q0 -77 -58.5 -134.5t-140.5 -57.5q-74 0 -119 41.5t-45 105.5zM819 1673q0 -36 23 -59t65 -23q52 0 87.5 37.5 t35.5 89.5q0 38 -23 61t-65 23q-53 0 -88 -38.5t-35 -90.5z" />
<glyph unicode="&#xc6;" horiz-adv-x="1957" d="M-25 0l930 1434h1125l-27 -160h-735l-88 -498h620l-28 -155h-619l-82 -461h762l-29 -160h-934l70 391h-520l-254 -391h-191zM496 530h469l131 744h-119z" />
<glyph unicode="&#xc7;" horiz-adv-x="1396" d="M184 645q0 164 66 312.5t181 258t281 174t355 64.5q246 0 426 -123l-94 -127q-161 96 -350 96q-125 0 -235.5 -36t-192 -99t-140.5 -146t-89 -178.5t-30 -195.5q0 -141 58 -255.5t173 -184.5t269 -70q177 0 361 96l59 -131q-212 -120 -438 -120q-33 0 -47 2l-33 -97 q14 2 22 2q70 0 107 -30.5t37 -85.5q0 -89 -70.5 -139t-163.5 -50q-81 0 -139 41l41 74q63 -24 102 -21q46 2 78.5 25t32.5 63q0 27 -20.5 45.5t-59.5 18.5q-7 0 -21 -1t-18 -1l-28 37l73 125q-241 34 -397 214t-156 443z" />
<glyph unicode="&#xc8;" horiz-adv-x="1314" d="M145 0l256 1434h985l-26 -160h-815l-88 -498h698l-29 -155h-698l-80 -461h840l-29 -160h-1014zM719 1753l155 78l84 -305h-94z" />
<glyph unicode="&#xc9;" horiz-adv-x="1314" d="M145 0l256 1434h985l-26 -160h-815l-88 -498h698l-29 -155h-698l-80 -461h840l-29 -160h-1014zM807 1526l184 336l137 -86l-219 -250h-102z" />
<glyph unicode="&#xca;" horiz-adv-x="1314" d="M145 0l256 1434h985l-26 -160h-815l-88 -498h698l-29 -155h-698l-80 -461h840l-29 -160h-1014zM625 1526l268 248h119l174 -248h-113l-131 143l-188 -143h-129z" />
<glyph unicode="&#xcb;" horiz-adv-x="1314" d="M145 0l256 1434h985l-26 -160h-815l-88 -498h698l-29 -155h-698l-80 -461h840l-29 -160h-1014zM600 1620q3 46 37.5 77.5t77.5 31.5q48 0 73 -24t25 -65q0 -50 -33 -82t-86 -32q-44 0 -70 26t-24 68zM1014 1620q1 46 36 77.5t78 31.5q48 0 73.5 -24t25.5 -65 q0 -50 -33 -82t-86 -32q-44 0 -70 26t-24 68z" />
<glyph unicode="&#xcc;" horiz-adv-x="565" d="M145 0l256 1434h172l-256 -1434h-172zM297 1753l156 78l86 -305h-95z" />
<glyph unicode="&#xcd;" horiz-adv-x="565" d="M145 0l256 1434h172l-256 -1434h-172zM461 1526l184 336l137 -86l-221 -250h-100z" />
<glyph unicode="&#xce;" horiz-adv-x="565" d="M145 0l256 1434h172l-256 -1434h-172zM201 1526l266 248h121l172 -248h-113l-129 143l-188 -143h-129z" />
<glyph unicode="&#xcf;" horiz-adv-x="565" d="M145 0l256 1434h172l-256 -1434h-172zM197 1620q1 46 35.5 77.5t78.5 31.5q48 0 73.5 -24t25.5 -65q0 -50 -33 -82t-88 -32q-43 0 -68.5 26.5t-23.5 67.5zM610 1620q1 46 36 77.5t79 31.5q48 0 73 -24t25 -65q0 -50 -33 -82t-88 -32q-43 0 -68.5 26.5t-23.5 67.5z" />
<glyph unicode="&#xd0;" horiz-adv-x="1507" d="M96 674l17 94h186l121 666h442q140 0 268 -41.5t211 -132.5q129 -143 129 -402q0 -116 -22.5 -224t-70 -211.5t-130.5 -190.5t-196 -144q-175 -88 -381 -88h-506l119 674h-187zM365 158h272q217 0 375 104q141 91 212.5 251t71.5 327q0 200 -86 299q-123 137 -399 137 h-246l-92 -508h318l-17 -94h-317z" />
<glyph unicode="&#xd1;" horiz-adv-x="1517" d="M145 0l256 1434h172l459 -920l111 -248h4l39 252l162 916h178l-258 -1434h-174l-459 944l-109 238h-6l-35 -240l-166 -942h-174zM688 1583q47 62 108.5 100.5t123.5 38.5q41 0 113 -40t118 -40q72 0 129 66l45 -39q-47 -63 -106 -102t-119 -39q-42 0 -116.5 40t-121.5 40 q-61 0 -127 -66z" />
<glyph unicode="&#xd2;" horiz-adv-x="1701" d="M182 639q0 159 64 307.5t173.5 260.5t266.5 179.5t332 67.5q142 0 265.5 -53t207.5 -142.5t132 -210t48 -253.5q0 -159 -62 -307.5t-169.5 -260.5t-262.5 -179.5t-331 -67.5q-190 0 -343 90t-237 240.5t-84 328.5zM360 643q0 -140 60 -255.5t174.5 -185t261.5 -69.5 q137 0 257.5 55.5t202.5 147t129.5 210.5t47.5 245q0 139 -60 254t-174.5 185t-261.5 70q-110 0 -210 -35.5t-176.5 -98.5t-133.5 -145.5t-87 -179.5t-30 -198zM848 1753l156 78l86 -305h-95z" />
<glyph unicode="&#xd3;" horiz-adv-x="1701" d="M182 639q0 159 64 307.5t173.5 260.5t266.5 179.5t332 67.5q142 0 265.5 -53t207.5 -142.5t132 -210t48 -253.5q0 -159 -62 -307.5t-169.5 -260.5t-262.5 -179.5t-331 -67.5q-190 0 -343 90t-237 240.5t-84 328.5zM360 643q0 -140 60 -255.5t174.5 -185t261.5 -69.5 q137 0 257.5 55.5t202.5 147t129.5 210.5t47.5 245q0 139 -60 254t-174.5 185t-261.5 70q-110 0 -210 -35.5t-176.5 -98.5t-133.5 -145.5t-87 -179.5t-30 -198zM958 1526l185 336l137 -86l-219 -250h-103z" />
<glyph unicode="&#xd4;" horiz-adv-x="1701" d="M182 639q0 159 64 307.5t173.5 260.5t266.5 179.5t332 67.5q142 0 265.5 -53t207.5 -142.5t132 -210t48 -253.5q0 -159 -62 -307.5t-169.5 -260.5t-262.5 -179.5t-331 -67.5q-190 0 -343 90t-237 240.5t-84 328.5zM360 643q0 -140 60 -255.5t174.5 -185t261.5 -69.5 q137 0 257.5 55.5t202.5 147t129.5 210.5t47.5 245q0 139 -60 254t-174.5 185t-261.5 70q-110 0 -210 -35.5t-176.5 -98.5t-133.5 -145.5t-87 -179.5t-30 -198zM780 1526l269 248h120l172 -248h-112l-131 143l-189 -143h-129z" />
<glyph unicode="&#xd5;" horiz-adv-x="1701" d="M182 639q0 159 64 307.5t173.5 260.5t266.5 179.5t332 67.5q142 0 265.5 -53t207.5 -142.5t132 -210t48 -253.5q0 -159 -62 -307.5t-169.5 -260.5t-262.5 -179.5t-331 -67.5q-190 0 -343 90t-237 240.5t-84 328.5zM360 643q0 -140 60 -255.5t174.5 -185t261.5 -69.5 q137 0 257.5 55.5t202.5 147t129.5 210.5t47.5 245q0 139 -60 254t-174.5 185t-261.5 70q-110 0 -210 -35.5t-176.5 -98.5t-133.5 -145.5t-87 -179.5t-30 -198zM760 1583q47 62 108 100.5t123 38.5q41 0 113.5 -40t118.5 -40q72 0 129 66l45 -39q-47 -63 -106.5 -102 t-119.5 -39q-42 0 -116 40t-121 40q-61 0 -127 -66z" />
<glyph unicode="&#xd6;" horiz-adv-x="1701" d="M182 639q0 159 64 307.5t173.5 260.5t266.5 179.5t332 67.5q142 0 265.5 -53t207.5 -142.5t132 -210t48 -253.5q0 -159 -62 -307.5t-169.5 -260.5t-262.5 -179.5t-331 -67.5q-190 0 -343 90t-237 240.5t-84 328.5zM360 643q0 -140 60 -255.5t174.5 -185t261.5 -69.5 q137 0 257.5 55.5t202.5 147t129.5 210.5t47.5 245q0 139 -60 254t-174.5 185t-261.5 70q-110 0 -210 -35.5t-176.5 -98.5t-133.5 -145.5t-87 -179.5t-30 -198zM739 1620q1 46 36 77.5t79 31.5q46 0 72 -24t26 -65q-2 -50 -35 -82t-86 -32q-44 0 -69 26t-23 68zM1153 1620 q1 46 35.5 77.5t77.5 31.5q48 0 74 -24t26 -65q-2 -50 -35 -82t-86 -32q-44 0 -69 26t-23 68z" />
<glyph unicode="&#xd7;" horiz-adv-x="913" d="M180 434l266 225l-186 228l84 69l188 -225l269 230l61 -72l-268 -230l186 -225l-88 -76l-186 228l-264 -228z" />
<glyph unicode="&#xd8;" horiz-adv-x="1699" d="M182 639q0 159 64 307.5t173.5 260.5t266.5 179.5t332 67.5q207 0 366 -106l125 151h113l-170 -205q104 -93 161.5 -223t57.5 -276q0 -159 -62 -307.5t-169.5 -260.5t-262.5 -179.5t-331 -67.5q-220 0 -383 114l-135 -166h-111l180 219q-102 92 -158.5 219.5t-56.5 272.5 zM360 643q0 -107 37 -202.5t105 -166.5l776 945q-124 81 -281 81q-110 0 -210 -35.5t-176.5 -98.5t-133.5 -145.5t-87 -179.5t-30 -198zM567 219q122 -86 289 -86q137 0 257.5 55.5t202.5 147t129.5 210.5t47.5 245q0 109 -38 205t-109 167z" />
<glyph unicode="&#xd9;" horiz-adv-x="1488" d="M217 422q0 35 6 72l166 940h168l-166 -945q-4 -23 -4 -53q0 -121 92.5 -199.5t237.5 -78.5q162 0 293.5 97t156.5 234l172 945h166l-168 -940q-39 -215 -213.5 -354.5t-416.5 -139.5q-223 0 -356.5 121t-133.5 301zM768 1753l156 78l86 -305h-95z" />
<glyph unicode="&#xda;" horiz-adv-x="1488" d="M217 422q0 35 6 72l166 940h168l-166 -945q-4 -23 -4 -53q0 -121 92.5 -199.5t237.5 -78.5q162 0 293.5 97t156.5 234l172 945h166l-168 -940q-39 -215 -213.5 -354.5t-416.5 -139.5q-223 0 -356.5 121t-133.5 301zM856 1526l182 336l140 -86l-222 -250h-100z" />
<glyph unicode="&#xdb;" horiz-adv-x="1488" d="M217 422q0 35 6 72l166 940h168l-166 -945q-4 -23 -4 -53q0 -121 92.5 -199.5t237.5 -78.5q162 0 293.5 97t156.5 234l172 945h166l-168 -940q-39 -215 -213.5 -354.5t-416.5 -139.5q-223 0 -356.5 121t-133.5 301zM690 1526l268 248h121l172 -248h-112l-131 143 l-189 -143h-129z" />
<glyph unicode="&#xdc;" horiz-adv-x="1488" d="M217 422q0 35 6 72l166 940h168l-166 -945q-4 -23 -4 -53q0 -121 92.5 -199.5t237.5 -78.5q162 0 293.5 97t156.5 234l172 945h166l-168 -940q-39 -215 -213.5 -354.5t-416.5 -139.5q-223 0 -356.5 121t-133.5 301zM664 1620q1 46 35.5 77.5t78.5 31.5q48 0 73.5 -24 t25.5 -65q0 -50 -33.5 -82t-87.5 -32q-44 0 -69 26t-23 68zM1077 1620q1 46 36 77.5t79 31.5q48 0 73 -24t25 -65q-2 -50 -35 -82t-86 -32q-44 0 -69 26t-23 68z" />
<glyph unicode="&#xdd;" horiz-adv-x="1241" d="M209 1434h184l287 -682h6l526 682h215l-671 -850l-105 -584h-178l102 584zM719 1526l184 336l137 -86l-219 -250h-102z" />
<glyph unicode="&#xde;" horiz-adv-x="1316" d="M145 0l258 1450h177l-54 -289h437q105 0 188 -55.5t126.5 -143.5t43.5 -188q0 -94 -36 -181t-100 -153.5t-159 -106.5t-205 -40h-450l-54 -293h-172zM399 449h447q118 0 211.5 99.5t93.5 215.5q0 96 -61.5 169t-161.5 73h-430z" />
<glyph unicode="&#xdf;" horiz-adv-x="1257" d="M111 0l176 1006q21 119 72 208.5t119 140t141 75t151 24.5q171 0 272 -91.5t101 -244.5q0 -74 -24 -131.5t-58 -92t-68 -65t-58 -68t-24 -83.5q0 -34 19 -65.5t48 -55t62 -54t62 -61.5t48 -79t19 -105q0 -174 -126.5 -270.5t-323.5 -96.5q-157 0 -275 84l80 144 q1 0 27 -13.5t48 -23t61 -18.5t77 -9q113 0 190 57.5t77 159.5q0 51 -27.5 93t-66 73t-77.5 62t-66.5 73t-27.5 93q0 54 24 97.5t58 75t68 64t58 79.5t24 105q0 38 -10 71t-33.5 64t-68 49.5t-105.5 18.5q-105 0 -194 -81.5t-118 -247.5l-170 -961h-161z" />
<glyph unicode="&#xe0;" horiz-adv-x="1341" d="M137 473q0 161 76 300.5t215.5 225.5t310.5 86q142 0 239.5 -60.5t149.5 -166.5l54 207h145l-153 -815l-29 -250h-137v158q-145 -178 -400 -178q-114 0 -205.5 41t-148.5 110.5t-87 157t-30 184.5zM317 483q0 -147 88.5 -249.5t235.5 -102.5q114 0 214.5 63.5t160 171 t59.5 230.5q0 153 -90.5 246.5t-234.5 93.5q-118 0 -218.5 -63.5t-157.5 -167.5t-57 -222zM565 1425l154 78l86 -305h-94z" />
<glyph unicode="&#xe1;" horiz-adv-x="1341" d="M137 473q0 161 76 300.5t215.5 225.5t310.5 86q142 0 239.5 -60.5t149.5 -166.5l54 207h145l-153 -815l-29 -250h-137v158q-145 -178 -400 -178q-114 0 -205.5 41t-148.5 110.5t-87 157t-30 184.5zM317 483q0 -147 88.5 -249.5t235.5 -102.5q114 0 214.5 63.5t160 171 t59.5 230.5q0 153 -90.5 246.5t-234.5 93.5q-118 0 -218.5 -63.5t-157.5 -167.5t-57 -222zM662 1198l184 336l137 -86l-221 -250h-100z" />
<glyph unicode="&#xe2;" horiz-adv-x="1341" d="M137 473q0 161 76 300.5t215.5 225.5t310.5 86q142 0 239.5 -60.5t149.5 -166.5l54 207h145l-153 -815l-29 -250h-137v158q-145 -178 -400 -178q-114 0 -205.5 41t-148.5 110.5t-87 157t-30 184.5zM317 483q0 -147 88.5 -249.5t235.5 -102.5q114 0 214.5 63.5t160 171 t59.5 230.5q0 153 -90.5 246.5t-234.5 93.5q-118 0 -218.5 -63.5t-157.5 -167.5t-57 -222zM477 1198l268 248h121l172 -248h-112l-131 143l-189 -143h-129z" />
<glyph unicode="&#xe3;" horiz-adv-x="1341" d="M137 473q0 161 76 300.5t215.5 225.5t310.5 86q142 0 239.5 -60.5t149.5 -166.5l54 207h145l-153 -815l-29 -250h-137v158q-145 -178 -400 -178q-114 0 -205.5 41t-148.5 110.5t-87 157t-30 184.5zM317 483q0 -147 88.5 -249.5t235.5 -102.5q114 0 214.5 63.5t160 171 t59.5 230.5q0 153 -90.5 246.5t-234.5 93.5q-118 0 -218.5 -63.5t-157.5 -167.5t-57 -222zM492 1255q47 62 107.5 101t121.5 39q43 0 115 -40t118 -40q68 0 129 65l45 -39q-104 -141 -227 -141q-43 0 -116 40t-119 40q-61 0 -127 -66z" />
<glyph unicode="&#xe4;" horiz-adv-x="1341" d="M137 473q0 161 76 300.5t215.5 225.5t310.5 86q142 0 239.5 -60.5t149.5 -166.5l54 207h145l-153 -815l-29 -250h-137v158q-145 -178 -400 -178q-114 0 -205.5 41t-148.5 110.5t-87 157t-30 184.5zM317 483q0 -147 88.5 -249.5t235.5 -102.5q114 0 214.5 63.5t160 171 t59.5 230.5q0 153 -90.5 246.5t-234.5 93.5q-118 0 -218.5 -63.5t-157.5 -167.5t-57 -222zM471 1286q0 46 37.5 80.5t83.5 34.5q39 0 65.5 -25t26.5 -63q0 -46 -39.5 -80.5t-87.5 -34.5q-37 0 -61.5 25.5t-24.5 62.5zM887 1286q0 48 38 81.5t85 33.5q39 0 63.5 -24.5 t24.5 -63.5q0 -46 -37.5 -80.5t-83.5 -34.5q-39 0 -64.5 25.5t-25.5 62.5z" />
<glyph unicode="&#xe5;" horiz-adv-x="1341" d="M137 473q0 161 76 300.5t215.5 225.5t310.5 86q142 0 239.5 -60.5t149.5 -166.5l54 207h145l-153 -815l-29 -250h-137v158q-145 -178 -400 -178q-114 0 -205.5 41t-148.5 110.5t-87 157t-30 184.5zM317 483q0 -147 88.5 -249.5t235.5 -102.5q114 0 214.5 63.5t160 171 t59.5 230.5q0 153 -90.5 246.5t-234.5 93.5q-118 0 -218.5 -63.5t-157.5 -167.5t-57 -222zM631 1346q0 78 58.5 135t139.5 57q74 0 119 -41t45 -106q0 -78 -58 -135.5t-140 -57.5q-74 0 -119 42t-45 106zM707 1346q0 -36 24 -59t64 -23q52 0 87.5 37.5t35.5 89.5 q0 38 -23.5 61t-65.5 23q-52 0 -87 -38.5t-35 -90.5z" />
<glyph unicode="&#xe6;" horiz-adv-x="1853" d="M76 301q0 79 32 142t83 102t119 64.5t134 35.5t134 10q130 0 264 -34q20 92 61 161q0 47 -19 80t-54 50.5t-76 24.5t-95 7q-81 0 -182 -13.5t-160 -27.5l-28 127q83 24 200 39.5t209 15.5q262 0 336 -143q166 143 391 143q174 0 287 -93t113 -261q0 -79 -27.5 -141.5 t-73.5 -102.5t-110 -66t-132 -37t-145 -11q-88 0 -184.5 13t-159.5 32q3 -129 102 -213t269 -84q162 0 293 78l57 -121q-176 -98 -366 -98q-156 0 -272 59t-181 164q-62 -70 -125.5 -117t-123.5 -69t-107.5 -29.5t-100.5 -7.5q-160 0 -261 86t-101 235zM240 313 q0 -89 64 -139.5t169 -50.5q127 0 227 71t131 177q-8 41 -8 98v29q-131 32 -241 32q-93 0 -167.5 -20.5t-124.5 -71t-50 -125.5zM995 555q55 -14 148.5 -27.5t175.5 -13.5q48 0 91.5 5t90.5 19.5t80.5 38t55.5 63t22 91.5q0 94 -66 143.5t-174 49.5q-170 0 -284.5 -107.5 t-139.5 -261.5z" />
<glyph unicode="&#xe7;" horiz-adv-x="1091" d="M137 485q0 165 90 303.5t241 217.5t327 79q191 0 335 -108l-88 -119q-114 78 -258 78q-129 0 -239 -63t-173 -166.5t-63 -221.5q0 -154 98.5 -254t247.5 -100q132 0 258 66l62 -125q-140 -92 -352 -92q-26 0 -66 4l-33 -97h23q70 0 107.5 -30.5t37.5 -85.5 q0 -91 -71 -141t-164 -50q-79 0 -140 43l41 74q66 -24 103 -21q45 0 77.5 22t32.5 64q0 28 -20 47t-59 19q-21 0 -37 -4l-31 39l78 131q-168 39 -266.5 177t-98.5 314z" />
<glyph unicode="&#xe8;" horiz-adv-x="1167" d="M137 469q0 123 45 235.5t123.5 196.5t192.5 134t245 50q110 0 198 -39t143 -120.5t55 -194.5q0 -79 -27.5 -141.5t-73.5 -102.5t-109.5 -66t-131.5 -37t-144 -11q-198 0 -346 45q2 -125 100.5 -211t260.5 -86q172 0 303 78l57 -121q-176 -98 -369 -98q-238 0 -380 137.5 t-142 351.5zM309 555q161 -41 326 -41q47 0 90.5 5t90 19.5t80 38t55.5 63t22 91.5q0 93 -66 143t-170 50q-88 0 -164 -30t-129.5 -81.5t-88 -117.5t-46.5 -140zM602 1425l156 78l84 -305h-94z" />
<glyph unicode="&#xe9;" horiz-adv-x="1167" d="M137 469q0 123 45 235.5t123.5 196.5t192.5 134t245 50q110 0 198 -39t143 -120.5t55 -194.5q0 -79 -27.5 -141.5t-73.5 -102.5t-109.5 -66t-131.5 -37t-144 -11q-198 0 -346 45q2 -125 100.5 -211t260.5 -86q172 0 303 78l57 -121q-176 -98 -369 -98q-238 0 -380 137.5 t-142 351.5zM309 555q161 -41 326 -41q47 0 90.5 5t90 19.5t80 38t55.5 63t22 91.5q0 93 -66 143t-170 50q-88 0 -164 -30t-129.5 -81.5t-88 -117.5t-46.5 -140zM700 1198l185 336l137 -86l-219 -250h-103z" />
<glyph unicode="&#xea;" horiz-adv-x="1167" d="M137 469q0 123 45 235.5t123.5 196.5t192.5 134t245 50q110 0 198 -39t143 -120.5t55 -194.5q0 -79 -27.5 -141.5t-73.5 -102.5t-109.5 -66t-131.5 -37t-144 -11q-198 0 -346 45q2 -125 100.5 -211t260.5 -86q172 0 303 78l57 -121q-176 -98 -369 -98q-238 0 -380 137.5 t-142 351.5zM309 555q161 -41 326 -41q47 0 90.5 5t90 19.5t80 38t55.5 63t22 91.5q0 93 -66 143t-170 50q-88 0 -164 -30t-129.5 -81.5t-88 -117.5t-46.5 -140zM487 1198l267 248h120l173 -248h-113l-129 143l-191 -143h-127z" />
<glyph unicode="&#xeb;" horiz-adv-x="1167" d="M137 469q0 123 45 235.5t123.5 196.5t192.5 134t245 50q110 0 198 -39t143 -120.5t55 -194.5q0 -79 -27.5 -141.5t-73.5 -102.5t-109.5 -66t-131.5 -37t-144 -11q-198 0 -346 45q2 -125 100.5 -211t260.5 -86q172 0 303 78l57 -121q-176 -98 -369 -98q-238 0 -380 137.5 t-142 351.5zM309 555q161 -41 326 -41q47 0 90.5 5t90 19.5t80 38t55.5 63t22 91.5q0 93 -66 143t-170 50q-88 0 -164 -30t-129.5 -81.5t-88 -117.5t-46.5 -140zM494 1292q1 46 35.5 77.5t78.5 31.5q47 0 73 -24t26 -64q-2 -50 -35 -82.5t-86 -32.5q-44 0 -69 26t-23 68z M907 1292q1 46 36 77.5t79 31.5q47 0 72.5 -24t25.5 -64q-2 -50 -35 -82.5t-86 -32.5q-44 0 -69 26t-23 68z" />
<glyph unicode="&#xec;" horiz-adv-x="530" d="M139 0l166 920l-112 32l22 113h293l-193 -1065h-176zM219 1425l156 78l86 -305h-94z" />
<glyph unicode="&#xed;" horiz-adv-x="530" d="M139 0l166 920l-112 32l22 113h293l-193 -1065h-176zM356 1198l185 336l137 -86l-219 -250h-103z" />
<glyph unicode="&#xee;" horiz-adv-x="530" d="M113 1198l266 248h121l172 -248h-113l-129 143l-190 -143h-127zM139 0l166 920l-112 32l22 113h293l-193 -1065h-176z" />
<glyph unicode="&#xef;" horiz-adv-x="530" d="M96 1292q1 46 36 77.5t79 31.5q48 0 73 -23.5t25 -64.5q-2 -50 -35 -82.5t-86 -32.5q-44 0 -69 26t-23 68zM139 0l166 920l-112 32l22 113h293l-193 -1065h-176zM510 1292q1 46 36 77.5t79 31.5q48 0 73 -23.5t25 -64.5q-2 -50 -35 -82.5t-86 -32.5q-44 0 -69 26t-23 68z " />
<glyph unicode="&#xf0;" horiz-adv-x="1167" d="M119 393q0 121 46.5 224.5t122.5 171t171 105.5t194 38q104 0 188 -42t115 -120q2 20 2 64q0 102 -33 200t-94 172q-108 -67 -206 -125l-35 62l198 119q-83 80 -208 141l59 80h2q160 -69 258 -154q169 100 203 121l33 -61l-187 -111q82 -98 123 -245t41 -292 q0 -339 -166 -540t-430 -201q-182 0 -289.5 110t-107.5 283zM268 420q0 -115 72.5 -194t196.5 -79q160 0 272.5 114t112.5 269q0 117 -74.5 193t-194.5 76q-113 0 -203 -57.5t-136 -143t-46 -178.5z" />
<glyph unicode="&#xf1;" horiz-adv-x="1261" d="M104 0l162 836l23 229h145v-172q126 192 385 192q166 0 267.5 -84.5t101.5 -244.5q0 -63 -14 -138l-123 -618h-170l125 627q10 52 10 86q0 102 -62 158.5t-174 56.5q-78 0 -146.5 -29t-116 -76.5t-79 -104.5t-43.5 -118l-119 -600h-172zM545 1255q45 61 106.5 100.5 t122.5 39.5q41 0 113.5 -40t118.5 -40q72 0 129 65l45 -39q-100 -141 -228 -141q-42 0 -115 40t-118 40q-27 0 -53.5 -12t-40 -22.5t-35.5 -31.5z" />
<glyph unicode="&#xf2;" d="M135 471q0 168 87.5 310t233.5 223t314 81q218 0 359 -139t141 -350q0 -169 -86.5 -311t-234.5 -223.5t-322 -81.5q-210 0 -351 141.5t-141 349.5zM307 475q0 -155 96 -249.5t244 -94.5q112 0 216 61.5t169.5 168.5t65.5 229q0 147 -90 246.5t-248 99.5q-116 0 -221 -64 t-168.5 -171t-63.5 -226zM637 1425l154 78l86 -305h-95z" />
<glyph unicode="&#xf3;" d="M135 471q0 168 87.5 310t233.5 223t314 81q218 0 359 -139t141 -350q0 -169 -86.5 -311t-234.5 -223.5t-322 -81.5q-210 0 -351 141.5t-141 349.5zM307 475q0 -155 96 -249.5t244 -94.5q112 0 216 61.5t169.5 168.5t65.5 229q0 147 -90 246.5t-248 99.5q-116 0 -221 -64 t-168.5 -171t-63.5 -226zM686 1198l184 336l138 -86l-220 -250h-102z" />
<glyph unicode="&#xf4;" d="M135 471q0 168 87.5 310t233.5 223t314 81q218 0 359 -139t141 -350q0 -169 -86.5 -311t-234.5 -223.5t-322 -81.5q-210 0 -351 141.5t-141 349.5zM307 475q0 -155 96 -249.5t244 -94.5q112 0 216 61.5t169.5 168.5t65.5 229q0 147 -90 246.5t-248 99.5q-116 0 -221 -64 t-168.5 -171t-63.5 -226zM506 1198l266 248h121l172 -248h-113l-129 143l-190 -143h-127z" />
<glyph unicode="&#xf5;" d="M135 471q0 168 87.5 310t233.5 223t314 81q218 0 359 -139t141 -350q0 -169 -86.5 -311t-234.5 -223.5t-322 -81.5q-210 0 -351 141.5t-141 349.5zM307 475q0 -155 96 -249.5t244 -94.5q112 0 216 61.5t169.5 168.5t65.5 229q0 147 -90 246.5t-248 99.5q-116 0 -221 -64 t-168.5 -171t-63.5 -226zM567 1255q47 62 108.5 101t121.5 39q43 0 115.5 -40t117.5 -40q68 0 129 65l45 -39q-47 -63 -106 -102t-119 -39q-42 0 -116.5 40t-121.5 40q-61 0 -127 -66z" />
<glyph unicode="&#xf6;" d="M135 471q0 168 87.5 310t233.5 223t314 81q218 0 359 -139t141 -350q0 -169 -86.5 -311t-234.5 -223.5t-322 -81.5q-210 0 -351 141.5t-141 349.5zM307 475q0 -155 96 -249.5t244 -94.5q112 0 216 61.5t169.5 168.5t65.5 229q0 147 -90 246.5t-248 99.5q-116 0 -221 -64 t-168.5 -171t-63.5 -226zM506 1292q1 46 36.5 77.5t78.5 31.5q48 0 73 -23.5t25 -64.5q0 -50 -33 -82.5t-86 -32.5q-44 0 -70 26t-24 68zM920 1292q1 46 36 77.5t78 31.5q48 0 73.5 -23.5t25.5 -64.5q0 -50 -33 -82.5t-88 -32.5q-43 0 -68.5 26.5t-23.5 67.5z" />
<glyph unicode="&#xf7;" horiz-adv-x="1179" d="M203 600l20 117h879l-21 -117h-878zM487 305q0 50 38 85.5t87 35.5q38 0 63 -26.5t25 -63.5q0 -46 -39 -82.5t-86 -36.5q-39 0 -63.5 24.5t-24.5 63.5zM606 979q0 50 38 85.5t87 35.5q38 0 63 -26t25 -64q0 -49 -38.5 -85t-86.5 -36q-38 0 -63 25t-25 65z" />
<glyph unicode="&#xf8;" d="M135 471q0 168 87.5 310t233.5 223t314 81q126 0 238 -53l84 115h92l-113 -154q93 -67 146 -170.5t53 -226.5q0 -169 -86.5 -311t-234.5 -223.5t-322 -81.5q-135 0 -248 61l-82 -113h-92l112 156q-86 67 -134 167.5t-48 219.5zM307 475q0 -164 107 -260l499 688 q-71 33 -153 33q-116 0 -221 -64t-168.5 -171t-63.5 -226zM475 172q74 -41 172 -41q112 0 216 61.5t169.5 168.5t65.5 229q0 174 -121 274z" />
<glyph unicode="&#xf9;" horiz-adv-x="1255" d="M164 305q0 86 14 152l121 608h170l-121 -616q-12 -52 -12 -119q0 -96 57.5 -144.5t188.5 -48.5q129 0 234.5 95t135.5 229l117 604h174l-166 -834l-24 -231h-140v170q-64 -93 -167.5 -141.5t-219.5 -48.5q-171 0 -266.5 82t-95.5 243zM571 1425l156 78l86 -305h-94z" />
<glyph unicode="&#xfa;" horiz-adv-x="1255" d="M164 305q0 86 14 152l121 608h170l-121 -616q-12 -52 -12 -119q0 -96 57.5 -144.5t188.5 -48.5q129 0 234.5 95t135.5 229l117 604h174l-166 -834l-24 -231h-140v170q-64 -93 -167.5 -141.5t-219.5 -48.5q-171 0 -266.5 82t-95.5 243zM694 1198l185 336l137 -86 l-219 -250h-103z" />
<glyph unicode="&#xfb;" horiz-adv-x="1255" d="M164 305q0 86 14 152l121 608h170l-121 -616q-12 -52 -12 -119q0 -96 57.5 -144.5t188.5 -48.5q129 0 234.5 95t135.5 229l117 604h174l-166 -834l-24 -231h-140v170q-64 -93 -167.5 -141.5t-219.5 -48.5q-171 0 -266.5 82t-95.5 243zM514 1198l268 248h121l172 -248 h-112l-132 143l-188 -143h-129z" />
<glyph unicode="&#xfc;" horiz-adv-x="1255" d="M164 305q0 86 14 152l121 608h170l-121 -616q-12 -52 -12 -119q0 -96 57.5 -144.5t188.5 -48.5q129 0 234.5 95t135.5 229l117 604h174l-166 -834l-24 -231h-140v170q-64 -93 -167.5 -141.5t-219.5 -48.5q-171 0 -266.5 82t-95.5 243zM496 1294q1 46 35.5 77.5t78.5 31.5 q48 0 73.5 -23.5t25.5 -64.5q0 -50 -33.5 -82.5t-87.5 -32.5q-44 0 -69 26t-23 68zM909 1294q1 46 36 77.5t79 31.5q48 0 73 -23.5t25 -64.5q-2 -50 -35 -82.5t-86 -32.5q-44 0 -69 26t-23 68z" />
<glyph unicode="&#xfd;" horiz-adv-x="1101" d="M25 -307l47 145q82 -28 141 -28q123 0 217 184l-268 1071h178l197 -897h6l463 897h202l-610 -1108q-23 -42 -36.5 -65.5t-38.5 -61t-44 -58.5t-48.5 -47t-59 -40t-68.5 -23.5t-82 -9.5q-106 0 -196 41zM602 1198l184 336l138 -86l-219 -250h-103z" />
<glyph unicode="&#xfe;" horiz-adv-x="1351" d="M39 -348l338 1782h172l-96 -510q4 7 13 17.5t41.5 38.5t72 49t107 38.5t144.5 17.5q136 0 242.5 -69.5t161.5 -181t55 -242.5q0 -167 -76 -306.5t-215 -222.5t-311 -83q-72 0 -134 16t-101.5 39t-70 51.5t-45 51t-20.5 40.5l-106 -526h-172zM348 459q0 -145 87 -236.5 t237 -91.5q125 0 226.5 64.5t156.5 169t55 225.5q0 149 -95.5 247.5t-230.5 98.5q-124 0 -225 -66.5t-156 -175.5t-55 -235z" />
<glyph unicode="&#xff;" horiz-adv-x="1101" d="M25 -307l47 145q82 -28 141 -28q123 0 217 184l-268 1071h178l197 -897h6l463 897h202l-610 -1108q-23 -42 -36.5 -65.5t-38.5 -61t-44 -58.5t-48.5 -47t-59 -40t-68.5 -23.5t-82 -9.5q-106 0 -196 41zM422 1292q1 46 36.5 77.5t78.5 31.5q48 0 73 -23.5t25 -64.5 q0 -50 -33 -82.5t-88 -32.5q-43 0 -68.5 26.5t-23.5 67.5zM836 1292q1 46 35.5 77.5t78.5 31.5q48 0 73.5 -23.5t25.5 -64.5q0 -50 -33 -82.5t-88 -32.5q-43 0 -68.5 26.5t-23.5 67.5z" />
<glyph unicode="&#x152;" horiz-adv-x="2076" d="M188 662q0 164 67 308.5t181 245.5t269 159.5t327 58.5h1116l-28 -166h-793l-86 -488h674l-29 -164h-676l-77 -450h819l-31 -166h-1059q-201 2 -356.5 93t-236.5 240t-81 329zM369 662q0 -99 32 -188t90 -156.5t146 -108.5t194 -43h130l194 1102l-149 2q-176 0 -322 -78 t-230.5 -217.5t-84.5 -312.5z" />
<glyph unicode="&#x153;" horiz-adv-x="2123" d="M135 471q0 168 87.5 310t233.5 223t314 81q152 0 269 -78t169 -204q75 127 204.5 204.5t289.5 77.5q110 0 198 -39t142.5 -120.5t54.5 -194.5q0 -98 -41 -169.5t-112 -110t-153 -56.5t-179 -18q-87 0 -183.5 14.5t-162.5 34.5q2 -126 100.5 -215.5t259.5 -89.5 q172 0 303 78l58 -121q-176 -98 -369 -98q-166 0 -289.5 77t-175.5 205q-81 -127 -221.5 -204.5t-304.5 -77.5q-210 0 -351 141.5t-141 349.5zM307 475q0 -155 96 -249.5t244 -94.5q112 0 216 61.5t169.5 168.5t65.5 229q0 147 -90 246.5t-248 99.5q-116 0 -221 -64 t-168.5 -171t-63.5 -226zM1268 551q161 -41 325 -41q47 0 90.5 5.5t90 20.5t80 39t55.5 64t22 92q0 93 -65.5 143t-169.5 50q-173 0 -288 -108.5t-140 -264.5z" />
<glyph unicode="&#x178;" horiz-adv-x="1241" d="M209 1434h184l287 -682h6l526 682h215l-671 -850l-105 -584h-178l102 584zM524 1620q1 46 35.5 77.5t77.5 31.5q48 0 74 -24t26 -65q-2 -50 -35 -82t-86 -32q-44 0 -69 26t-23 68zM936 1620q3 46 37.5 77.5t77.5 31.5q48 0 73 -24t25 -65q0 -50 -33 -82t-86 -32 q-44 0 -70 26t-24 68z" />
<glyph unicode="&#x2c6;" horiz-adv-x="823" d="M610 1159l269 248h120l172 -248h-112l-131 144l-189 -144h-129z" />
<glyph unicode="&#x2dc;" horiz-adv-x="915" d="M582 1296q47 62 107 101t120 39q42 0 115 -40t120 -40q73 0 130 65l45 -39q-45 -63 -105 -102t-121 -39q-43 0 -116 40t-119 40q-63 0 -129 -66z" />
<glyph unicode="&#x2000;" horiz-adv-x="933" />
<glyph unicode="&#x2001;" horiz-adv-x="1866" />
<glyph unicode="&#x2002;" horiz-adv-x="933" />
<glyph unicode="&#x2003;" horiz-adv-x="1866" />
<glyph unicode="&#x2004;" horiz-adv-x="622" />
<glyph unicode="&#x2005;" horiz-adv-x="466" />
<glyph unicode="&#x2006;" horiz-adv-x="311" />
<glyph unicode="&#x2007;" horiz-adv-x="311" />
<glyph unicode="&#x2008;" horiz-adv-x="233" />
<glyph unicode="&#x2009;" horiz-adv-x="373" />
<glyph unicode="&#x200a;" horiz-adv-x="103" />
<glyph unicode="&#x2010;" horiz-adv-x="1026" d="M201 612l20 119h737l-22 -119h-735z" />
<glyph unicode="&#x2011;" horiz-adv-x="1026" d="M201 612l20 119h737l-22 -119h-735z" />
<glyph unicode="&#x2012;" horiz-adv-x="1026" d="M201 612l20 119h737l-22 -119h-735z" />
<glyph unicode="&#x2013;" horiz-adv-x="1441" d="M201 612l20 119h1153l-20 -119h-1153z" />
<glyph unicode="&#x2014;" horiz-adv-x="1660" d="M201 612l20 119h1372l-20 -119h-1372z" />
<glyph unicode="&#x2018;" horiz-adv-x="495" d="M260 1130q0 55 23.5 105.5t65 90t86 69.5t97.5 55l31 -66q-26 -13 -65 -42.5t-77.5 -79t-33.5 -91.5q16 19 53 19q36 0 54 -22.5t18 -57.5q0 -55 -42 -91t-93 -36q-56 0 -86.5 43t-30.5 104z" />
<glyph unicode="&#x2019;" horiz-adv-x="493" d="M262 1047q51 28 115.5 92t58.5 123q-16 -21 -53 -21q-36 0 -55 22.5t-19 57.5q0 55 43 92t92 37q57 0 88 -43.5t31 -103.5q0 -105 -79 -186.5t-193 -133.5z" />
<glyph unicode="&#x201a;" horiz-adv-x="497" d="M45 -195q51 28 115.5 91.5t58.5 121.5q-18 -18 -53 -18t-53.5 23t-18.5 57q0 55 42 91t93 36q55 0 86 -43.5t31 -104.5q0 -54 -23.5 -104.5t-64.5 -90t-86 -69.5t-98 -55z" />
<glyph unicode="&#x201c;" horiz-adv-x="905" d="M260 1130q0 105 78 185.5t194 134.5l29 -66q-25 -12 -64 -42t-77 -79.5t-33 -91.5q16 19 51 19q36 0 55 -22.5t19 -57.5q0 -55 -42 -91t-93 -36q-57 0 -87 42.5t-30 104.5zM649 1130q0 55 24 105.5t65.5 90t86.5 69.5t99 55l28 -66q-26 -13 -65 -42.5t-77.5 -79 t-33.5 -91.5q18 19 53 19t53.5 -23t18.5 -57q0 -55 -42 -91t-93 -36q-56 0 -86.5 43t-30.5 104z" />
<glyph unicode="&#x201d;" horiz-adv-x="905" d="M260 1047q19 9 46 29.5t59.5 49.5t53 66t17.5 70q-16 -21 -53 -21q-36 0 -55 22.5t-19 57.5q0 55 43 92t92 37q57 0 88 -43.5t31 -103.5q0 -105 -79 -186.5t-193 -133.5zM651 1047q18 10 45 29.5t59 49t52.5 66.5t17.5 70q-16 -21 -51 -21q-36 0 -55 22.5t-19 57.5 q0 56 42.5 92.5t93.5 36.5q56 0 86 -43t30 -104q0 -73 -42.5 -138t-100 -107t-129.5 -75z" />
<glyph unicode="&#x201e;" horiz-adv-x="909" d="M45 -195q51 28 115.5 91.5t58.5 121.5q-16 -18 -53 -18q-35 0 -53.5 23t-18.5 57q0 55 42 91t93 36q55 0 86 -43.5t31 -104.5q0 -54 -23.5 -104.5t-64.5 -90t-86 -69.5t-98 -55zM434 -195q18 10 45 30t60 49.5t53.5 66t17.5 67.5q-18 -18 -53 -18q-36 0 -55 22.5 t-19 57.5q0 55 43.5 91t94.5 36q55 0 84.5 -43t29.5 -105q0 -72 -42.5 -136.5t-99.5 -106.5t-130 -76z" />
<glyph unicode="&#x2022;" horiz-adv-x="641" d="M195 690q0 92 71 153.5t162 61.5q70 0 117 -47.5t47 -116.5q0 -92 -71 -153.5t-161 -61.5q-73 0 -119 47t-46 117z" />
<glyph unicode="&#x2026;" horiz-adv-x="1304" d="M98 94q0 51 40 89t91 38q41 0 69 -28t28 -68q0 -50 -41.5 -87.5t-94.5 -37.5q-40 0 -66 27t-26 67zM500 94q0 51 40 89t91 38q42 0 68 -27.5t26 -68.5q0 -51 -40 -88t-93 -37q-41 0 -66.5 27t-25.5 67zM922 94q0 51 40 89t91 38q41 0 67.5 -28t26.5 -68q0 -51 -40 -88 t-93 -37q-40 0 -66 27t-26 67z" />
<glyph unicode="&#x202f;" horiz-adv-x="373" />
<glyph unicode="&#x2039;" horiz-adv-x="724" d="M141 516l4 31l508 471l70 -88l-387 -400l244 -401l-99 -86z" />
<glyph unicode="&#x203a;" horiz-adv-x="727" d="M88 129l387 403l-246 398l101 88l340 -471l-4 -31l-508 -473z" />
<glyph unicode="&#x205f;" horiz-adv-x="466" />
<glyph unicode="&#x20ac;" horiz-adv-x="1648" d="M160 539l18 94h209q0 91 19 184h-197l18 96h207q88 242 313.5 391.5t530.5 149.5q238 0 418 -123l-94 -127q-161 96 -345 96q-225 0 -391 -107t-241 -280h553l-19 -96h-571q-23 -85 -23 -184h561l-14 -94h-537q29 -176 159.5 -290t330.5 -114q173 0 360 96l60 -131 q-214 -120 -447 -120q-246 0 -428 156t-217 403h-233z" />
<glyph unicode="&#x2122;" horiz-adv-x="1626" d="M336 1333l16 101h541l-19 -101h-215l-96 -532h-108l96 532h-215zM899 801l117 633h78l155 -385l297 385h88l-116 -633h-103l78 416l-236 -314h-55l-123 320l-80 -422h-100z" />
<glyph unicode="&#xe000;" horiz-adv-x="1064" d="M0 0v1065h1065v-1065h-1065z" />
</font>
</defs>
</svg>
